<?xml version="1.0" encoding="UTF-8"?>
<svg version="1.1" viewBox="0 0 1024 1024" xmlns="http://www.w3.org/2000/svg" xmlns:xlink="http://www.w3.org/1999/xlink">
 <g fill-rule="evenodd">
  <path d="m684 12.5c-15.8 2.92-32.7 10.8-50.8 24.8-72.1 55.8-87.6 122-84.8 208l-0.028 0.679c-79.4 2.43-160 27.1-232 88.7-88.1 75.5-132 186-140 288-118 45.5-177 135-161 216 7.3 36.8 57.8 105 218 24.9-1.9 98 82.9 155 186 129 36.7 30.4 261 61.3 309-155 211-46.7 260-224 268-260 29.2-144 9.08-228-154-299 7.85-62.8-46.2-285-157-265z" fill="#f1eee5" stroke="#404040" stroke-width="25"/>
  <path d="m738 753c88.5-46.9 186-129 176-208-184-180-456-137-417 79.5-23-29.9-51-59.2-91.5-86.6 110-232 386-220 576-129-40.3-84.7-98.6-110-141-131 6.21-110-60.6-255-129-265-84.4-12.4-188 117-163 234-89.5 4.71-177 41.6-232 88.7-88.3 75.6-127 194-135 296-53.7 19-173 82.5-157 195 11.8 82.1 117 82.5 221 17.2-51-80.5-27.2-187 90.1-257 9.52 57.7 27.6 96.3 48.8 128-93.4-61.8-154 36-138 129-16.6 110 79.2 168 175 135-94.6-96 24.1-231 22.9-60.2 16.2 0.853 42.1-48.2 95.6-84.6-50.9-144 120-154 197-80.3z" fill="#7d7068"/>
  <path d="m444 910c-5.17 29.7 13.9 53.6 29 65.4 40 31.4 116-26.6 122-49.2 13.2-51-15.8-89.1-55.7-91.4-42.8 17.8-79.6 48.2-94.7 75.2z" fill="#320f00"/>
  <path d="m577 639c-16.5 4.31-24.8-4.25-38.4-39.4-26.7-69.1 73.8-166 128-82.3 45.2 70-37.2 108-89.4 122z"/>
  <path d="m392 781c-24.6 34.3-72.4 73.4-93.8 36.1-21.7-37.8 6.37-72.9 30.4-82.8 55-22.5 58 19.5 63.4 46.7z"/>
 </g>
 <circle cx="608" cy="556" r="27.8" fill="#fff"/>
 <circle cx="342" cy="774" r="21.8" fill="#fff"/>
</svg>
