<svg xmlns:rdf="http://www.w3.org/1999/02/22-rdf-syntax-ns#" xmlns="http://www.w3.org/2000/svg" version="1.1" xmlns:cc="http://creativecommons.org/ns#" xmlns:xlink="http://www.w3.org/1999/xlink" viewBox="0 0 1024 1024" xmlns:dc="http://purl.org/dc/elements/1.1/">
<defs>
<linearGradient id="a">
<stop stop-color="#1b0800" stop-opacity=".54510" offset="0"/>
<stop stop-color="#1b0800" stop-opacity="0" offset="1"/>
</linearGradient>
<linearGradient id="c" y2="189" xlink:href="#a" gradientUnits="userSpaceOnUse" x2="795.6" gradientTransform="matrix(1.0203 0 0 1.0203 -8.3821 -4.828)" y1="228.29" x1="658.92"/>
<linearGradient id="b" y2="849.69" xlink:href="#a" gradientUnits="userSpaceOnUse" x2="162.17" gradientTransform="matrix(1.0203 0 0 1.0203 -8.3821 -4.828)" y1="789.58" x1="93.799"/>
</defs>
<g transform="translate(0 -28.362)">
<g fill-rule="evenodd">
<path d="m702.91 973.78c62.96-55.44 105.16-123.64 152.31-188.39 53.64-78.42 111.09-74.65 140.29-220.09 22.09-110.12-10.25-206.19-154.27-259.23 3.0714-71.99-19.579-143.82-59.258-214.84 45.998 57.178 68.278 131.83 70.551 209.42 125.5 52.202 174.96 130.59 154.47 264.8-7.1235 46.653-15.501 90.061-47.276 127.33-43.529 51.062-64.219 51.176-104.84 109.99-41.469 60.042-89.759 126.03-151.98 171.01z" fill-opacity=".59211" fill="#3a2727"/>
<path d="m174.72 652.47c-77.344 21.88-218.61 158.55-138.59 247.83 45.011 50.21 176.33 8.08 221.76-18.82" stroke="#404040" stroke-width="3" fill="#f1eee5"/>
<path d="m684.39 40.832c-15.79 2.919-32.74 10.797-50.83 24.808-72.06 55.84-87.6 122.01-84.76 208.18l-0.028 0.67943c-79.426 2.4257-159.65 27.095-231.63 88.742-165.74 141.95-174.36 406.57-84.701 508.92-1.8988 97.95 111.84 178.36 214.44 152.07 36.659-10.798 73.084 2.7026 112.27 5.6289 99.182-0.3393 189.86-78.135 299.55-249.26 32.78-51.13 109.12-75.88 128.74-172.91 29.16-144.1 17.26-230.58-146.24-301.89 7.85-62.84-46.25-285.4-156.81-264.97z" stroke="#404040" stroke-width="5" fill="#f1eee5"/>
<path d="m737.64 781.74c88.46-46.94 186.01-129.17 176.3-208.47-69.74-42.02-191.58-115.84-306.33-98.02-74.286 11.537-96.788 74.273-102.16 105.86-4.6763 27.518 3.2376 53.351-8.457 71.635-23.031-29.938-50.991-59.158-91.453-86.559 7.7577-19.785 33.181-27.306 40.138-43.837 37.709-89.605 125.6-115.37 207.07-120.4 85.475-21.13 175.66-15.461 275.23-3.1277-94.126-61.809-267.7-147.72-435.33-118.72-60.631 10.489-120.48 36.011-175.52 83.145-165.74 141.95-171.81 405.84-81.975 508.16-1.9639-92.45-15.73-186.94 101.6-256.83 9.52 57.651 27.638 96.325 48.758 128.38-25.103-23.683-124.34-16.284-113.24 81.397 7.3202 64.424 24.527 61.487 36.031 112.99 12.729 56.991 72.49 74.778 105.98 61.096 13.988 14.119 20.282 16.367 33.828 24.449 143.39 30.997 267.15-112.26 289.53-241.14z" fill-opacity=".54605" fill="#1b0800"/>
</g>
<g fill-rule="evenodd">
<path d="m444 941.74c-14.52-161.61-82.214-32.413-56.55 19.323 23.425 52.517 83.318 82.993 135.67 74.674 149-23.6 215.72-151.76 214.78-254.05-85.54-82.38-245.57-52.86-197.78 80.68z" fill="#fff"/>
<path d="m444.15 937.87c-5.1666 29.666 13.941 53.637 28.95 65.429 39.98 31.411 115.64-26.551 121.5-49.235 13.183-51.039-15.805-89.117-55.709-91.412-42.756 17.786-79.59 48.172-94.738 75.218z" fill="#320f00"/>
<path d="m576.8 667.72c-16.512 4.3118-24.819-4.2474-38.405-39.386-26.702-69.064 73.8-166.03 127.85-82.287 45.189 70.006-37.187 108.02-89.449 121.67z" fill="#222635"/>
<path d="m392.12 809.54c-24.623 34.311-72.391 73.386-93.779 36.117-21.68-37.777 6.3684-72.938 30.424-82.791 54.982-22.52 57.982 19.51 63.355 46.674z" fill="#222635"/>
</g>
<ellipse fill-opacity=".67763" rx="23.226" ry="26.393" transform="rotate(-45.478)" cy="830.42" cx="40.161" fill="#fff"/>
<ellipse fill-opacity=".71711" rx="12.243" ry="15.829" transform="matrix(.62208 -.78296 .75471 .65606 0 0)" cy="768.38" cx="-359.53" fill="#fff"/>
<g fill-rule="evenodd">
<path style="color-rendering:auto;text-decoration-color:#000000;color:#000000;isolation:auto;mix-blend-mode:normal;shape-rendering:auto;solid-color:#000000;block-progression:tb;text-decoration-line:none;text-decoration-style:solid;image-rendering:auto;white-space:normal;text-indent:0;text-transform:none" d="m384.98 955.87c28.391 88.056 115.97 88.536 141.05 85.516 119.7-17.747 218.03-108.17 211.93-259.35-4.0429 135.34-90.747 233.64-212.84 253.69-38.695 5.0477-108.04-6.3209-140.14-79.857z" fill="#404040"/>
<path d="m188.96 778.35c-19.38-105.88-3.45-270.15 107.09-381.96 78.53-79.44 167.66-106.86 251.11-109.88 153.38-5.55 287.42 60.91 379.36 111.87-94.78-67.25-244.83-127.26-375.9-124.12-5.11-82.88 13.38-195.31 145.32-237.35-53.64-1.426-167.48 87.07-157.19 235.5-93.25 8.88-188.24 44.11-259.97 124.83-66.75 75.12-98.96 161.26-103.54 244.79-50.07 15.77-146.92 85.01-163.47 183.65 24.633-98.4 126.33-164.86 163.64-173.09-0.81406 43.518 4.3485 85.996 13.549 125.77z" fill-opacity=".59216" fill="#3a2727"/>
<path d="m640.7 281.35c-18.46-29.33-45.9-106.48 1.72-164.98 94.4-115.96 186.17 112.62 162.52 214.63-31.2-15.15-115.05-43.48-164.24-49.65z" fill="url(#c)"/>
<path d="m173.45 700.86c-65.14 23.46-157.07 127.09-93.65 184.38 31.21 28.19 90.73-5.83 125.72-49.19-20.49-39.64-29.67-85.24-32.07-135.19z" fill="url(#b)"/>
<path d="m563.11 542.23c-21.225 26.542-35.319 62.283-12.625 103.84 5.1386 9.4096 10.872 21.996 28.085 17.521 28.469-7.4016 52.367-19.962 76.268-36.846-67.214 45.853-129.99-20.259-91.728-84.514z" fill-opacity=".54510" fill="#c3c3c3"/>
<path d="m299.24 839.74c4.8554 9.5589 10.915 22.156 28.085 17.521 8.789-2.3726 15.529-4.7864 25.6-12.382-27.65-4.5856-47.567-28.056-48.47-57.121-6.0417 8.2418-17.298 28.193-5.2147 51.982z" fill-opacity=".54510" fill="#c3c3c3"/>
</g>
<g fill="#838383" fill-opacity=".59211">
<ellipse rx="6.559" ry="9.4742" transform="rotate(-30.494)" cy="1060.6" cx="107.43"/>
<ellipse rx="5.4249" transform="matrix(.92207 -.38702 .32504 .94570 0 0)" ry="8.4431" cy="1047.7" cx="365.51"/>
<ellipse rx="5.6359" transform="matrix(.64379 -.76521 .67691 .73606 0 0)" ry="8.0947" cy="1033.4" cx="-77.096"/>
<ellipse rx="5.7494" ry="8.382" transform="matrix(.79405 -.60785 .58335 .81222 0 0)" cy="1051.7" cx="94.696"/>
<ellipse rx="5.9034" ry="7.9541" transform="matrix(.27087 -.96262 .94882 .31583 0 0)" cy="836.65" cx="-533.74"/>
<ellipse rx="5.4187" ry="8.2993" transform="matrix(.98885 -.14890 .13212 .99123 0 0)" cy="986.91" cx="519.95"/>
</g>
</g>
</svg>
