<svg enable-background="new" height="512" viewBox="0 0 512 512" width="512" xmlns="http://www.w3.org/2000/svg">
<g fill-rule="evenodd">
<path d="m462.33.6 49.62 155.13.11 356.27-512.06-25.9z" fill="#444" fill-opacity=".8"/>
<path d="m161.47 136.47v-128.97h293.06v472.28l-447.03-1.8v-341.47z" fill="#fff" stroke="#aaa" stroke-dashoffset="21.44" stroke-linecap="round" stroke-width="15"/>
<path d="m.22 128.99 153.58-128.49v128.49z" fill="#e9e9e9"/>
</g>
<path d="m239.08 316.59h-90.85l-18.17 22.5-20.77 24.88q-6.06 8-8.87 14.49-2.16 4.98-2.16 9.95 0 5.19 5.41 9.73 5.62 4.33 18.39 4.98v8h-87.62l2.16-8q11.68-1.95 20.77-8.22 12.11-8.65 34.83-35.69l207.88-248.13h9.73l-9.73 240.12q-.65 18.82-.65 22.71 0 14.71 5.84 21.42 6.06 6.71 19.9 7.79l-2.16 8h-126.98l2.38-8q18.82-1.73 21.63-3.03 6.06-3.03 11.03-12.55 4.98-9.73 6.06-33.53zm0-17.74 5.62-95.61-81.55 95.61z" fill="#171717" transform="matrix(1 0 .11 1 0 0)"/>
<path d="m154.28-.17h307.92v487.54l-462.56-1.8v-356.11z" fill="#eda1ff" fill-rule="evenodd" opacity=".42"/>
<path d="m2.37 143.7 185.66 23.82-19.29-163.69v139.87z" fill="#444" fill-opacity=".8" fill-rule="evenodd"/>
<path d="m153.99.22-153.99 128.76v14.36h461.77v-143.12z" fill="#6f6f6f" fill-opacity=".15" fill-rule="evenodd"/>
</svg>
