<svg enable-background="new" height="512" viewBox="0 0 512 512" width="512" xmlns="http://www.w3.org/2000/svg">
<g fill-rule="evenodd">
<path d="m462.33.6 49.62 155.13.11 356.27-512.06-25.9z" fill="#444" fill-opacity=".8"/>
<path d="m161.47 136.47v-128.97h293.06v472.28l-447.03-1.8v-341.47z" fill="#fff" stroke="#aaa" stroke-dashoffset="21.44" stroke-linecap="round" stroke-width="15"/>
<path d="m.22 128.99 153.58-128.49v128.49z" fill="#e9e9e9"/>
</g>
<path d="m77.48 263.49 281.89 18.29m-279.96-77.02 322.05 3.58m-320.89 170.36 275 35.35m-283.66-94.41 321.14 22.9" fill="none" stroke="#575757" stroke-linecap="round" stroke-opacity=".64" stroke-width="24.92"/>
<path d="m154.28-.17h307.92v487.54l-462.56-1.8v-356.11z" fill="#f3e16e" fill-rule="evenodd" opacity=".42"/>
<path d="m2.37 143.7 185.66 23.82-19.29-163.69v139.87z" fill="#444" fill-opacity=".8" fill-rule="evenodd"/>
<path d="m153.99.22-153.99 128.76v14.36h461.77v-143.12z" fill="#6f6f6f" fill-opacity=".15" fill-rule="evenodd"/>
</svg>
