<?xml version="1.0" encoding="UTF-8" standalone="no"?>
<!-- Created with Inkscape (http://www.inkscape.org/) -->

<svg
   xmlns:dc="http://purl.org/dc/elements/1.1/"
   xmlns:cc="http://creativecommons.org/ns#"
   xmlns:rdf="http://www.w3.org/1999/02/22-rdf-syntax-ns#"
   xmlns:svg="http://www.w3.org/2000/svg"
   xmlns="http://www.w3.org/2000/svg"
   xmlns:sodipodi="http://sodipodi.sourceforge.net/DTD/sodipodi-0.dtd"
   xmlns:inkscape="http://www.inkscape.org/namespaces/inkscape"
   width="1024"
   height="1024"
   viewBox="0 0 1024 1024"
   id="svg2"
   version="1.1"
   inkscape:version="0.91 r13725"
   sodipodi:docname="main.svg">
  <defs
     id="defs4" />
  <sodipodi:namedview
     id="base"
     pagecolor="#ffffff"
     bordercolor="#666666"
     borderopacity="1.0"
     inkscape:pageopacity="0.0"
     inkscape:pageshadow="2"
     inkscape:zoom="0.7"
     inkscape:cx="563.53611"
     inkscape:cy="520.59778"
     inkscape:document-units="px"
     inkscape:current-layer="layer1"
     showgrid="false"
     inkscape:window-width="1920"
     inkscape:window-height="1130"
     inkscape:window-x="0"
     inkscape:window-y="0"
     inkscape:window-maximized="1"
     units="px" />
  <metadata
     id="metadata7">
    <rdf:RDF>
      <cc:Work
         rdf:about="">
        <dc:format>image/svg+xml</dc:format>
        <dc:type
           rdf:resource="http://purl.org/dc/dcmitype/StillImage" />
        <dc:title></dc:title>
      </cc:Work>
    </rdf:RDF>
  </metadata>
  <g
     inkscape:label="Layer 1"
     inkscape:groupmode="layer"
     id="layer1"
     style="display:inline;opacity:0.27300002"
     transform="translate(0,-28.362161)" />
  <g
     inkscape:groupmode="layer"
     id="layer2"
     inkscape:label="Layer 2"
     transform="translate(0,-28.362161)">
    <path
       style="fill:none;fill-rule:evenodd;stroke:#000000;stroke-width:1px;stroke-linecap:butt;stroke-linejoin:miter;stroke-opacity:1"
       d="m 617.25872,737.09606 c -47.50127,16.30134 -103.19105,-3.36782 -142.5038,-13.73553 -49.64562,-13.09273 -87.81571,21.65987 -57.51659,51.5082 29.30871,28.87266 52.42464,28.84707 72.11035,93.57321 14.84578,48.81255 68.79553,80.40715 114.60396,26.18333 26.10763,-30.90382 56.40691,-15.31841 87.13335,-14.594 42.67566,1.00616 43.2054,-38.37649 0.85846,-63.95599 -14.59192,-36.7311 -65.55378,-45.86901 -74.68573,-78.97922 z"
       id="path4148"
       inkscape:connector-curvature="0"
       sodipodi:nodetypes="cssssscc" />
    <path
       style="fill:none;fill-rule:evenodd;stroke:#000000;stroke-width:1px;stroke-linecap:butt;stroke-linejoin:miter;stroke-opacity:1"
       d="m 588.0712,831.52773 c 19.49355,-3.47403 83.77468,-3.31757 53.65353,-50.22048 -16.22634,-25.26673 -69.06464,-43.34749 -90.56717,-15.8817 -22.45027,28.67639 23.28631,44.40979 36.91364,66.10218 z"
       id="path4150"
       inkscape:connector-curvature="0"
       sodipodi:nodetypes="cssc" />
    <path
       style="fill:none;fill-rule:evenodd;stroke:#000000;stroke-width:1px;stroke-linecap:butt;stroke-linejoin:miter;stroke-opacity:1"
       d="m 457.8004,762.20629 c 30.52832,54.28978 139.38234,125.09964 236.29019,84.34466"
       id="path4152"
       inkscape:connector-curvature="0"
       sodipodi:nodetypes="cc" />
    <path
       style="fill:none;fill-rule:evenodd;stroke:#000000;stroke-width:1px;stroke-linecap:butt;stroke-linejoin:miter;stroke-opacity:1"
       d="m 446.85507,769.7179 c 3.43957,-4.26085 12.55932,-10.24808 22.31988,-9.87239"
       id="path4154"
       inkscape:connector-curvature="0"
       sodipodi:nodetypes="cc" />
    <path
       style="fill:none;fill-rule:evenodd;stroke:#000000;stroke-width:1px;stroke-linecap:butt;stroke-linejoin:miter;stroke-opacity:1"
       d="m 688.51062,832.81544 c 4.73831,7.32144 7.69851,15.47052 5.15075,26.18334"
       id="path4156"
       inkscape:connector-curvature="0"
       sodipodi:nodetypes="cc" />
    <path
       style="fill:none;fill-rule:evenodd;stroke:#000000;stroke-width:1px;stroke-linecap:butt;stroke-linejoin:miter;stroke-opacity:1"
       d="m 512.52701,818.00683 c 13.80268,21.59007 13.46068,57.12031 43.56667,67.81913 27.35883,9.72255 32.98244,-19.9898 65.67194,-27.47104"
       id="path4158"
       inkscape:connector-curvature="0"
       sodipodi:nodetypes="csc" />
    <path
       style="fill:none;fill-rule:evenodd;stroke:#000000;stroke-width:1px;stroke-linecap:butt;stroke-linejoin:miter;stroke-opacity:1"
       d="m 452.00582,719.49742 c -46.93166,-146.88754 44.8522,-313.64454 112.88705,-222.34369 52.0605,69.86373 7.01373,210.13747 -22.7491,242.51773"
       id="path4160"
       inkscape:connector-curvature="0"
       sodipodi:nodetypes="csc" />
    <path
       style="fill:none;fill-rule:evenodd;stroke:#000000;stroke-width:1px;stroke-linecap:butt;stroke-linejoin:miter;stroke-opacity:1"
       d="M 484.59809,853.04817 C 410.76391,834.28834 299.54463,899.04504 219.33013,839.69351 162.54544,797.67795 139.72009,725.91749 45.722252,711.61022 60.0058,702.71071 78.030673,697.08491 105.21026,699.46962 80.23856,686.55658 50.420687,684.5476 19.013348,686.11496 191.52413,543.00501 336.38019,681.505 440.89262,598.09563"
       id="path4162"
       inkscape:connector-curvature="0"
       sodipodi:nodetypes="cscccc" />
    <path
       style="fill:none;fill-rule:evenodd;stroke:#000000;stroke-width:1px;stroke-linecap:butt;stroke-linejoin:miter;stroke-opacity:1"
       d="m 605.39517,892.50512 c 50.25106,41.29279 84.68599,118.74068 166.32363,86.80526 44.65831,-17.46968 78.20794,-7.51715 105.62156,14.56871 4.48634,-8.46356 1.34911,-24.5508 -5.46318,-44.31317 14.57005,15.47952 18.42898,29.17383 23.6738,43.09912 7.89418,-7.64334 12.33585,-21.50129 12.14041,-43.70615 8.94574,8.76205 11.30524,15.8775 13.96146,23.06714 C 943.74925,824.25173 812.853,851.76074 814.21022,731.6422"
       id="path4164"
       inkscape:connector-curvature="0"
       sodipodi:nodetypes="cscccccc" />
    <path
       style="fill:none;fill-rule:evenodd;stroke:#000000;stroke-width:1px;stroke-linecap:butt;stroke-linejoin:miter;stroke-opacity:1"
       d="M 658.81298,778.99052 C 690.46427,612.77155 824.48553,544.05451 839.09807,629.66118 853.36226,713.22708 756.57883,815.54632 712.23078,831.80213"
       id="path4166"
       inkscape:connector-curvature="0"
       sodipodi:nodetypes="csc" />
    <path
       style="fill:none;fill-rule:evenodd;stroke:#000000;stroke-width:1px;stroke-linecap:butt;stroke-linejoin:miter;stroke-opacity:1"
       d="m 62.111807,655.15643 60.095033,-78.91387 -29.744012,7.89138 c 26.307482,-53.6687 38.417532,-39.70481 98.198182,-77.41556 77.02172,-48.58673 159.40647,-43.60224 213.81037,-79.19814 141.98183,-92.89724 295.16962,-82.11713 302.90324,83.77013 130.51799,-117.28558 190.44035,39.60508 172.39383,134.76062 -35.12999,185.23299 86.55665,164.59866 41.88442,325.368"
       id="path4168"
       inkscape:connector-curvature="0"
       sodipodi:nodetypes="cccsscsc" />
    <path
       style="fill:none;fill-rule:evenodd;stroke:#000000;stroke-width:1px;stroke-linecap:butt;stroke-linejoin:miter;stroke-opacity:1"
       d="m 429.96624,411.73747 c 38.85279,4.80851 74.65245,-7.68441 108.65668,-30.3515 22.68577,1.46692 131.72818,28.27741 81.94776,-40.671 -31.46597,-43.58198 -87.13668,-27.78134 -125.04622,-15.17574 15.47625,3.43984 17.40275,6.87966 21.24571,10.3195 -19.10728,-0.31325 -43.92548,2.5695 -59.79151,18.51441 12.09963,-1.20047 14.5686,-3.3387 23.9773,-1.51757 -28.30955,16.97789 -28.18846,35.45127 -50.98972,58.8819 z"
       id="path4170"
       inkscape:connector-curvature="0"
       sodipodi:nodetypes="ccsccccc" />
    <path
       style="fill:none;fill-rule:evenodd;stroke:#000000;stroke-width:1px;stroke-linecap:butt;stroke-linejoin:miter;stroke-opacity:1"
       d="m 882.09259,590.72694 c 9.94189,-28.16901 32.64246,-38.12509 17.16914,-81.55463 8.05377,7.72622 10.40095,15.45245 14.16453,23.17868 -1.1156,-31.47208 -15.68243,-59.01186 -48.50279,-77.69153 -32.27147,-18.36726 -42.68268,2.77709 -60.52121,15.45247 9.91185,20.50677 20.33895,31.95659 45.70657,43.21852 26.69739,11.85226 24.47543,50.97486 31.98376,77.39649 z"
       id="path4172"
       inkscape:connector-curvature="0"
       sodipodi:nodetypes="cccscsc" />
    <path
       style="fill:none;fill-rule:evenodd;stroke:#000000;stroke-width:1px;stroke-linecap:butt;stroke-linejoin:miter;stroke-opacity:1"
       d="m 160.44914,524.03799 c 62.40953,-74.74981 116.03153,-181.13522 193.03251,-203.355 -6.92123,-2.68743 -15.48317,-4.20289 -30.35102,-1.21407 26.52759,-17.32194 42.11457,-15.88827 61.30907,-20.63901 -11.47305,-2.61575 -25.24459,-3.5897 -47.95461,1.82109 22.30348,-15.45208 43.45097,-23.96821 62.52311,-20.03199 -13.61328,-72.84653 -63.78067,-108.33506 -94.00895,-101.99754 m -3.6506,18.32748 c -17.6203,23.84991 -17.8775,72.54672 8.42753,143.15899"
       id="path4174"
       inkscape:connector-curvature="0"
       sodipodi:nodetypes="ccccccccc" />
    <path
       style="fill:none;fill-rule:evenodd;stroke:#000000;stroke-width:1px;stroke-linecap:butt;stroke-linejoin:miter;stroke-opacity:1"
       d="m 259.39348,392.31251 c -41.60005,-45.26078 -98.36208,-210.31943 14.56849,-283.48294 -18.34512,-0.74154 -29.78915,5.41812 -41.88441,10.92653 10.09403,-18.92464 25.04825,-35.547071 65.55821,-40.063965 -6.76284,-2.121195 -1.20051,-6.553394 -31.56507,-4.249204 85.50279,-39.923625 162.56251,-6.388884 196.67465,46.134259 38.59197,59.42083 47.02906,158.13177 125.65325,160.25588 97.60374,2.63686 154.72611,52.1595 165.10958,120.19191"
       id="path4176"
       inkscape:connector-curvature="0"
       sodipodi:nodetypes="cccccssc" />
    <path
       style="fill:none;fill-rule:evenodd;stroke:#000000;stroke-width:1px;stroke-linecap:butt;stroke-linejoin:miter;stroke-opacity:1"
       d="m 776.57496,360.13992 c 67.3845,-24.02109 77.02367,-75.76407 132.33046,-90.44744 67.59008,-17.94445 107.57158,66.30349 81.34075,103.19508"
       id="path4178"
       inkscape:connector-curvature="0"
       sodipodi:nodetypes="csc" />
    <path
       style="fill:none;fill-rule:evenodd;stroke:#000000;stroke-width:1px;stroke-linecap:butt;stroke-linejoin:miter;stroke-opacity:1"
       d="m 727.4063,340.71497 c 59.87944,11.14047 85.41848,52.32927 121.40409,84.37716"
       id="path4180"
       inkscape:connector-curvature="0"
       sodipodi:nodetypes="cc" />
    <path
       style="fill:none;fill-rule:evenodd;stroke:#000000;stroke-width:1px;stroke-linecap:butt;stroke-linejoin:miter;stroke-opacity:1"
       d="m 919.22478,363.7821 c -21.09026,-8.09596 -22.60136,48.57104 -57.66696,62.52408 20.1986,16.3194 25.81499,31.42361 26.70891,46.13426"
       id="path4182"
       inkscape:connector-curvature="0"
       sodipodi:nodetypes="ccc" />
    <path
       style="fill:none;fill-rule:evenodd;stroke:#000000;stroke-width:1px;stroke-linecap:butt;stroke-linejoin:miter;stroke-opacity:1"
       d="m 887.35621,466.37015 c 14.81528,-10.37986 48.81068,-76.77221 12.44391,-88.62635"
       id="path4184"
       inkscape:connector-curvature="0"
       sodipodi:nodetypes="cc" />
    <path
       style="fill:none;fill-rule:evenodd;stroke:#000000;stroke-width:1px;stroke-linecap:butt;stroke-linejoin:miter;stroke-opacity:1"
       d="m 984.17597,349.21339 c 24.24613,65.92002 -25.51668,133.16743 -50.98971,177.25273 -22.35467,38.68845 -15.0339,65.26259 -17.90712,98.33882 -5.57907,64.22568 -27.8988,97.13115 -30.04751,152.97153"
       id="path4186"
       inkscape:connector-curvature="0"
       sodipodi:nodetypes="cssc" />
    <path
       style="fill:none;fill-rule:evenodd;stroke:#000000;stroke-width:1px;stroke-linecap:butt;stroke-linejoin:miter;stroke-opacity:1"
       d="m 506.51781,731.516 c 17.51077,-20.35986 30.25946,-43.75017 35.19672,-72.11147 l -56.65813,-15.45245 57.08737,-42.49427 c 2.98234,-88.59284 -46.21876,-116.42873 -91.85486,-45.92813"
       id="path4207"
       inkscape:connector-curvature="0"
       sodipodi:nodetypes="ccccc" />
    <path
       style="fill:none;fill-rule:evenodd;stroke:#000000;stroke-width:1px;stroke-linecap:butt;stroke-linejoin:miter;stroke-opacity:1"
       d="m 686.36448,805.34441 c 33.92777,-10.41355 54.06851,-35.67488 73.39805,-61.80983 l -50.64895,-14.16476 65.2427,-11.58934 c 43.59708,-54.96058 35.93663,-126.93631 -49.36124,-81.55464"
       id="path4209"
       inkscape:connector-curvature="0"
       sodipodi:nodetypes="ccccc" />
    <path
       style="fill:none;fill-rule:evenodd;stroke:#000000;stroke-width:1px;stroke-linecap:butt;stroke-linejoin:miter;stroke-opacity:1"
       d="m 745.59799,722.9313 c 34.43892,-59.39331 -22.51202,-70.86748 -54.512,-9.8724 -31.84756,60.70455 8.39246,76.53469 44.63975,23.17868"
       id="path4211"
       inkscape:connector-curvature="0"
       sodipodi:nodetypes="csc" />
    <path
       style="fill:none;fill-rule:evenodd;stroke:#000000;stroke-width:1px;stroke-linecap:butt;stroke-linejoin:miter;stroke-opacity:1"
       d="m 513.38547,622.91957 c 4.90294,-56.67709 -50.36177,-89.96795 -59.66274,11.1601 -5.81095,63.18162 36.16536,83.6569 53.22431,15.45245"
       id="path4213"
       inkscape:connector-curvature="0"
       sodipodi:nodetypes="csc" />
    <path
       style="fill:none;fill-rule:evenodd;stroke:#000000;stroke-width:1px;stroke-linecap:butt;stroke-linejoin:miter;stroke-opacity:1"
       d="m 589.61263,784.75732 c -12.22924,-0.30352 -27.38222,-13.64565 -9.1053,-17.30036 7.13099,-1.42594 20.85995,2.40296 29.13698,10.01599 10.87598,10.00347 -7.429,15.22161 -20.03168,7.28437 z"
       id="path4215"
       inkscape:connector-curvature="0"
       sodipodi:nodetypes="cssc" />
    <path
       style="fill:none;fill-rule:evenodd;stroke:#000000;stroke-width:1px;stroke-linecap:butt;stroke-linejoin:miter;stroke-opacity:1"
       d="m 565.33181,845.76381 c 0,0 2.99239,15.29828 -2.12456,22.1566"
       id="path4217"
       inkscape:connector-curvature="0"
       sodipodi:nodetypes="cc" />
    <path
       style="fill:none;fill-rule:evenodd;stroke:#000000;stroke-width:1px;stroke-linecap:butt;stroke-linejoin:miter;stroke-opacity:1"
       d="m 352.21023,194.75773 c -30.28352,-7.55969 -51.68114,-3.62808 -72.53959,18.45709"
       id="path4219"
       inkscape:connector-curvature="0"
       sodipodi:nodetypes="cc" />
  </g>
</svg>
