<svg height="512" width="512" xmlns="http://www.w3.org/2000/svg" xmlns:xlink="http://www.w3.org/1999/xlink">
  <linearGradient id="a" gradientUnits="userSpaceOnUse" x1="254.83" x2="160.03" y1="-138.87" y2="-240.5">
    <stop offset="0" stop-color="#fcaf00"/>
    <stop offset="1" stop-color="#ffd066"/>
  </linearGradient>
  <g transform="translate(0 496)">
    <path d="m47.19-79.15c4.73 20.38 26.41 42.51 45.38 48.99l123.73-48.92 273.9-272.36c31.55-36.17-85.18-160.69-122.46-122.46l-267.31 268.86z" fill="url(#a)" stroke="#c18600" stroke-width="10"/>
    <path d="m97.49-27.01c-27.81-12.33-44.83-31.7-52.94-56.89-48.61 97.9-34.52 104.13 52.94 56.89z"/>
    <g stroke-width="10">
      <path d="m108.45-212.43 68.08-.51 206.81-200.52-15.78-60.11z" fill="#5f9dff" stroke="#3a6ec1"/>
      <path d="m177.97-212.94-17.27 51.82h69.09l202.37-208.05-49.85-45.01z" fill="#1d75ff" stroke="#274f8d"/>
      <path d="m229.25-161.12-5.05 74.14 265.17-264.15-57.22-18.3z" fill="#0049bd" stroke="#1b3c70"/>
    </g>
    <path d="m520.38 29.08a31.85 12.49 0 1 1 -63.71 0 31.85 12.49 0 1 1 63.71 0z" transform="matrix(.76 .65 -.65 .76 80.28 -761.4)"/>
  </g>
</svg>
