<?xml version="1.0" encoding="UTF-8" standalone="no"?>
<!-- Created with Inkscape (http://www.inkscape.org/) -->

<svg
   xmlns:dc="http://purl.org/dc/elements/1.1/"
   xmlns:cc="http://creativecommons.org/ns#"
   xmlns:rdf="http://www.w3.org/1999/02/22-rdf-syntax-ns#"
   xmlns:svg="http://www.w3.org/2000/svg"
   xmlns="http://www.w3.org/2000/svg"
   xmlns:xlink="http://www.w3.org/1999/xlink"
   xmlns:sodipodi="http://sodipodi.sourceforge.net/DTD/sodipodi-0.dtd"
   xmlns:inkscape="http://www.inkscape.org/namespaces/inkscape"
   width="500"
   height="350"
   viewBox="0 0 500.00001 350"
   id="svg2"
   version="1.1"
   inkscape:version="0.91 r13725"
   sodipodi:docname="about.svg">
  <defs
     id="defs4">
    <linearGradient
       inkscape:collect="always"
       xlink:href="#linearGradient4914"
       id="linearGradient4920"
       x1="658.92084"
       y1="228.28609"
       x2="795.60425"
       y2="189.00037"
       gradientUnits="userSpaceOnUse"
       gradientTransform="matrix(1.0202941,0,0,1.0202941,-8.382068,-4.828024)" />
    <linearGradient
       inkscape:collect="always"
       id="linearGradient4914">
      <stop
         style="stop-color:#1b0800;stop-opacity:0.54509807"
         offset="0"
         id="stop4916" />
      <stop
         style="stop-color:#1b0800;stop-opacity:0;"
         offset="1"
         id="stop4918" />
    </linearGradient>
    <linearGradient
       inkscape:collect="always"
       xlink:href="#linearGradient4914"
       id="linearGradient4930"
       x1="93.79921"
       y1="789.58228"
       x2="162.16568"
       y2="849.68634"
       gradientUnits="userSpaceOnUse"
       gradientTransform="matrix(1.0202941,0,0,1.0202941,-8.382068,-4.828024)" />
  </defs>
  <sodipodi:namedview
     id="base"
     pagecolor="#ffffff"
     bordercolor="#666666"
     borderopacity="1.0"
     inkscape:pageopacity="0.0"
     inkscape:pageshadow="2"
     inkscape:zoom="1"
     inkscape:cx="453.32312"
     inkscape:cy="199.03406"
     inkscape:document-units="px"
     inkscape:current-layer="layer1"
     showgrid="false"
     units="px"
     inkscape:window-width="1855"
     inkscape:window-height="1056"
     inkscape:window-x="65"
     inkscape:window-y="24"
     inkscape:window-maximized="1" />
  <metadata
     id="metadata7">
    <rdf:RDF>
      <cc:Work
         rdf:about="">
        <dc:format>image/svg+xml</dc:format>
        <dc:type
           rdf:resource="http://purl.org/dc/dcmitype/StillImage" />
        <dc:title />
      </cc:Work>
    </rdf:RDF>
  </metadata>
  <g
     inkscape:groupmode="layer"
     id="layer2"
     inkscape:label="background"
     sodipodi:insensitive="true">
    <rect
       transform="translate(0,-702.36216)"
       style="opacity:1;fill:#dadbde;fill-opacity:1;stroke:none;stroke-width:2;stroke-linecap:square;stroke-linejoin:miter;stroke-miterlimit:4;stroke-dasharray:none;stroke-opacity:1"
       id="rect4199"
       width="500"
       height="350"
       x="0"
       y="702.36218" />
  </g>
  <g
     inkscape:label="texts"
     inkscape:groupmode="layer"
     id="layer1"
     transform="translate(0,-702.36216)">
    <g
       id="g4298"
       style="font-style:normal;font-variant:normal;font-weight:bold;font-stretch:normal;font-size:80.22854614px;line-height:125%;font-family:Purisa;-inkscape-font-specification:'Purisa, Bold';text-align:start;letter-spacing:0px;word-spacing:0px;writing-mode:lr-tb;text-anchor:start;fill:none;fill-opacity:1;stroke:#8d8f99;stroke-width:2;stroke-linecap:butt;stroke-linejoin:miter;stroke-miterlimit:4;stroke-dasharray:none;stroke-opacity:1"
       transform="matrix(1,0,-0.14097332,1,0.70710678,0.70710678)">
      <path
         id="path4300"
         style="fill:none;stroke:#8d8f99;stroke-width:2;stroke-miterlimit:4;stroke-dasharray:none;stroke-opacity:1"
         d="m 278.37134,731.06231 q 0,-3.61028 -6.97989,-5.0544 -4.57302,-0.96274 -6.09737,-0.96274 -1.44411,0 -7.70194,1.20343 -4.17188,0.80228 -5.0544,1.76503 -0.88251,0.96274 -0.88251,5.21485 0,4.33234 0.48137,9.46697 0.5616,5.0544 1.1232,6.09737 0.24069,0.0802 0.96274,0.0802 2.48709,0 7.06012,-1.04297 4.57302,-1.04297 7.54148,-2.56732 1.52434,-0.80228 2.56731,-1.84525 1.04297,-1.1232 1.1232,-1.76503 0.24069,-2.00571 3.04869,-5.37531 2.808,-3.44983 2.808,-5.21486 z m -25.59291,-13.15748 q 2.64754,0 6.65897,-0.64183 4.01143,-0.72206 6.7392,-0.72206 1.1232,0 1.76503,0.0802 3.04868,0.40115 4.33234,0.5616 1.28365,0.16046 3.61028,0.64183 2.40686,0.48137 3.3696,0.96274 1.04297,0.48137 2.48709,1.36389 1.44411,0.88251 2.00571,2.08594 0.64183,1.1232 1.1232,2.808 0.48137,1.6848 0.48137,3.85097 0,3.44983 -1.04297,7.70194 -0.96274,4.17188 -2.808,4.25211 -0.0802,0.16046 -0.16046,0.64183 0,0.48137 0,0.5616 -0.88251,2.48709 -5.85668,6.57874 -4.97417,4.09166 -8.02286,4.65326 -1.76502,0.48137 -2.48708,0.72206 -0.64183,0.24068 -0.96274,0.64182 -0.32092,0.32092 -0.40115,0.32092 -1.60457,1.04297 -6.09737,1.04297 l -3.85097,0 0.72206,12.91679 q 0.40114,6.81943 0.40114,9.62743 0,3.9312 -0.72205,5.69623 -0.72206,1.76502 -2.72777,2.64754 -0.5616,0.24068 -1.20343,0.24068 -2.72777,0 -3.28937,-4.49279 -0.88252,-6.09737 -2.08594,-22.78491 -1.1232,-16.68754 -1.1232,-22.54422 l 0,-6.33806 -0.80229,0.48137 q -1.76503,1.28366 -3.3696,1.28366 -0.88251,0 -1.76503,-0.80229 -0.80228,-0.80228 -0.80228,-2.08594 0,-2.48708 4.89394,-7.54148 2.56731,-2.64754 4.01143,-3.61029 1.52434,-1.04297 3.20914,-1.04297 0.64183,0 1.60457,0.16046 0.96274,0.0802 2.16617,0.0802 z"
         inkscape:connector-curvature="0" />
      <path
         id="path4302"
         style="fill:none;stroke:#8d8f99;stroke-width:2;stroke-miterlimit:4;stroke-dasharray:none;stroke-opacity:1"
         d="m 325.87667,742.53499 q 1.52434,0 2.64754,0.72206 1.1232,0.64183 1.44411,1.28366 0.40114,0.64182 0.40114,1.1232 0,1.60457 -3.69051,2.96845 -4.89394,1.84526 -10.6704,9.06583 -5.69622,7.22057 -6.89965,13.55862 -1.52434,8.10309 -2.56731,10.75063 -1.04297,2.72777 -3.04869,2.72777 -0.80228,0 -1.44411,-0.24069 -0.5616,-0.16045 -0.96274,-0.72205 -0.40115,-0.5616 -0.64183,-0.96275 -0.24069,-0.40114 -0.48137,-1.28365 -0.16046,-0.96275 -0.24069,-1.36389 0,-0.48137 -0.16046,-1.52434 -0.0802,-1.1232 -0.0802,-1.36389 -1.92548,-18.77348 -1.92548,-31.52982 0,-2.64754 0.32091,-4.09165 0.32092,-1.52434 1.60457,-2.64754 0.80229,-0.72206 1.76503,-0.72206 1.04297,0 1.76503,0.88251 0.72206,0.80229 0.72206,2.16617 0,2.96846 0.80228,8.424 0.88252,5.37531 1.60457,8.424 0.64183,-0.88251 1.84526,-2.72777 3.04868,-4.97417 8.50423,-8.90537 5.45554,-4.01143 9.38674,-4.01143 z"
         inkscape:connector-curvature="0" />
      <path
         id="path4304"
         style="fill:none;stroke:#8d8f99;stroke-width:2;stroke-miterlimit:4;stroke-dasharray:none;stroke-opacity:1"
         d="m 348.67161,745.50345 q 6.73919,-5.77646 11.47268,-7.62171 4.81371,-1.84526 12.03428,-1.84526 11.15177,0 13.95977,6.25783 1.60457,3.53005 1.60457,8.74491 0,8.26354 -4.01143,16.84799 -3.9312,8.58446 -10.02857,12.03429 -5.93691,3.28937 -12.59588,3.28937 -9.78788,0 -14.92251,-5.77646 -3.61028,-4.01143 -4.73348,-6.81943 -1.04297,-2.88822 -1.04297,-7.94262 0,-10.02857 8.26354,-17.16891 z m 14.52136,31.04845 q 6.57874,0 12.11451,-8.34377 5.616,-8.424 5.616,-19.0944 0,-1.1232 -0.24068,-1.76502 -0.16046,-0.64183 -0.40115,-0.88252 -0.24068,-0.32091 -0.88251,-0.80228 -2.88823,-2.08595 -6.09737,-2.08595 -0.48137,0 -1.36388,0.16046 -0.80229,0.0802 -2.48709,0.32092 -1.60457,0.16045 -3.53006,0.32091 -2.64754,0.24069 -4.33234,1.04297 -1.60457,0.72206 -4.17188,2.88823 -4.81371,4.09165 -6.89966,7.54148 -2.00571,3.3696 -2.00571,7.38103 0,5.85668 4.09166,9.62742 4.09165,3.69052 10.59016,3.69052 z"
         inkscape:connector-curvature="0" />
      <path
         id="path4306"
         style="fill:none;stroke:#8d8f99;stroke-width:2;stroke-miterlimit:4;stroke-dasharray:none;stroke-opacity:1"
         d="m 437.01326,760.98756 q 1.92548,0 1.92548,2.48708 0,1.92549 -4.01142,6.89966 -4.01143,4.89394 -6.97989,6.89965 -7.14034,4.73349 -12.83656,4.73349 -4.17189,0 -8.9856,-2.16617 -4.89394,-2.16617 -7.06011,-5.85669 -2.16617,-3.77074 -2.64755,-10.83085 0,-0.72206 -0.16045,-2.08594 -0.0802,-1.44412 -0.0802,-2.08595 0,-6.17759 6.33805,-12.67611 6.41829,-6.57874 11.47269,-7.78216 2.2464,-0.5616 5.85668,-0.5616 6.89965,0 12.03428,4.17188 5.13463,4.17188 5.13463,8.50423 0,1.44411 -0.88252,2.72777 -0.80228,1.28365 -2.16617,1.28365 -0.32091,0 -0.72205,-0.0802 -0.40115,-0.0802 -1.28366,-0.88251 -0.80229,-0.80228 -0.96274,-2.2464 -0.0802,-0.5616 -0.96275,-1.92548 -0.80228,-1.36389 -1.60457,-2.16617 -0.96274,-1.04298 -1.52434,-1.44412 -0.48137,-0.40114 -2.88823,-0.88251 -2.40685,-0.5616 -6.49851,-0.5616 -3.04868,0 -4.57303,0.96274 -1.52434,0.88251 -3.93119,3.9312 -6.01715,7.46125 -6.01715,13.31794 0,3.04868 0.80229,5.13462 0.80229,2.00572 1.36389,2.56732 0.5616,0.5616 2.24639,1.92548 2.2464,1.92549 3.44983,2.48709 1.20343,0.48137 3.3696,0.48137 6.89966,0 15.48411,-9.14605 4.81371,-5.13463 7.3008,-5.13463 z"
         inkscape:connector-curvature="0" />
      <path
         id="path4308"
         style="fill:none;stroke:#8d8f99;stroke-width:2;stroke-miterlimit:4;stroke-dasharray:none;stroke-opacity:1"
         d="m 452.02352,741.25134 q 1.84526,0 2.32663,1.44411 0.5616,1.44411 0.5616,4.25211 0,3.53006 -0.0802,7.22057 -0.0802,3.69052 -0.0802,6.1776 0,10.50994 1.84526,10.50994 1.1232,0 4.73348,-3.44983 3.61029,-3.44983 5.21486,-6.7392 1.6848,-3.36959 2.808,-7.78216 1.20343,-4.41257 1.6848,-7.22057 0.5616,-2.808 1.6848,-4.81372 1.20343,-2.08594 3.12891,-2.08594 1.36389,0 2.32663,0.96274 1.04297,0.96275 1.04297,2.48709 0,1.36388 -1.84526,8.18331 -1.76503,6.7392 -1.76503,14.20045 0,2.48709 0.24069,4.57303 l 0.24069,0.88251 1.44411,-0.64182 q 1.92548,-0.96275 3.53006,-0.96275 1.44411,0 2.24639,0.72206 0.88252,0.64183 0.88252,1.6848 0,2.48708 -3.9312,4.4928 l -2.72777,1.28366 0.40114,8.02285 q -0.48137,14.6016 -1.20343,15.56434 -0.96274,1.44411 -2.96845,1.44411 -1.92549,0 -6.01714,-1.52434 -2.32663,-0.96274 -3.69052,-2.08594 -1.28365,-1.1232 -2.48708,-3.3696 -2.56731,-4.81371 -2.56731,-8.66469 0,-1.28365 0.32091,-2.08594 0.40114,-0.72205 1.44411,-2.08594 1.1232,-1.28366 1.92549,-2.48708 0.96274,-1.44412 2.88823,-2.32663 1.92548,-0.96274 2.08594,-1.1232 0.40114,-0.32092 2.08594,-1.36389 0,-2.48708 -0.88251,-4.41257 -0.24069,0.24069 -1.84526,1.84526 -1.60457,1.52434 -2.88823,2.64754 -1.28365,1.04297 -3.53005,2.08594 -2.16617,1.04297 -4.25212,1.04297 -4.17188,0 -6.57874,-4.33234 -1.1232,-2.00571 -1.44411,-4.41257 -0.32092,-2.40685 -0.32092,-9.06582 0,-10.1088 0.64183,-14.36091 0.72206,-4.33234 3.3696,-4.33234 z m 19.17462,53.19152 q 0.40115,-0.88251 0.40115,-2.808 0,-1.52434 -0.32092,-3.61028 -0.24068,-2.00572 -0.5616,-3.44983 -0.32091,-1.36388 -0.32091,-1.44411 l -0.16046,-1.84526 -0.72205,0.96274 q -3.12892,4.33234 -3.12892,7.14034 0,1.04297 1.92549,2.808 1.92548,1.84526 2.88822,2.2464 z"
         inkscape:connector-curvature="0" />
      <path
         id="path4310"
         style="fill:none;stroke:#8d8f99;stroke-width:2;stroke-miterlimit:4;stroke-dasharray:none;stroke-opacity:1"
         d="m 501.29388,745.50345 q 6.73919,-5.77646 11.47268,-7.62171 4.81371,-1.84526 12.03428,-1.84526 11.15177,0 13.95977,6.25783 1.60457,3.53005 1.60457,8.74491 0,8.26354 -4.01143,16.84799 -3.9312,8.58446 -10.02857,12.03429 -5.93691,3.28937 -12.59588,3.28937 -9.78788,0 -14.92251,-5.77646 -3.61028,-4.01143 -4.73348,-6.81943 -1.04297,-2.88822 -1.04297,-7.94262 0,-10.02857 8.26354,-17.16891 z m 14.52136,31.04845 q 6.57874,0 12.11451,-8.34377 5.616,-8.424 5.616,-19.0944 0,-1.1232 -0.24068,-1.76502 -0.16046,-0.64183 -0.40115,-0.88252 -0.24068,-0.32091 -0.88251,-0.80228 -2.88823,-2.08595 -6.09737,-2.08595 -0.48137,0 -1.36389,0.16046 -0.80228,0.0802 -2.48708,0.32092 -1.60457,0.16045 -3.53006,0.32091 -2.64754,0.24069 -4.33234,1.04297 -1.60457,0.72206 -4.17188,2.88823 -4.81372,4.09165 -6.89966,7.54148 -2.00571,3.3696 -2.00571,7.38103 0,5.85668 4.09165,9.62742 4.09166,3.69052 10.59017,3.69052 z"
         inkscape:connector-curvature="0" />
      <path
         id="path4312"
         style="fill:none;stroke:#8d8f99;stroke-width:2;stroke-miterlimit:4;stroke-dasharray:none;stroke-opacity:1"
         d="m 555.05704,739.72699 q 0,-4.17188 2.64754,-4.17188 1.76503,0.0802 2.32663,2.16617 0.5616,2.08594 1.60457,11.71337 0.24069,2.16617 0.40114,3.3696 l 1.1232,9.14605 0.88252,-2.64754 q 1.6848,-5.21486 2.88822,-7.62171 1.28366,-2.40686 4.65326,-6.81943 6.49851,-8.58445 10.99131,-8.58445 2.96846,0 5.13463,3.28937 2.56731,3.61028 3.12891,7.22057 0.64183,3.61028 0.88251,16.52708 0.16046,8.18331 0.16046,9.94834 0,5.29508 -0.72206,7.22057 -0.72205,1.84525 -2.96845,1.84525 -1.52434,0 -2.00572,-0.80228 -0.48137,-0.88252 -0.48137,-3.44983 0,-1.20343 0.16046,-4.97417 0.16046,-3.77074 0.16046,-6.25783 0,-6.81942 -0.5616,-12.75634 -0.5616,-5.93691 -1.28366,-7.46125 -0.32091,-0.64183 -0.80228,-1.20343 -0.48138,-0.64183 -0.88252,-0.96274 -0.32091,-0.32092 -0.48137,-0.32092 -1.28366,0 -5.29508,5.37532 -3.9312,5.37531 -6.65897,10.99131 -2.808,5.93691 -3.77074,8.66468 -0.88252,2.72777 -1.44412,7.38103 -0.88251,7.46125 -1.44411,8.26354 -0.40114,0.48137 -0.88252,0.48137 -1.20342,-0.16046 -2.56731,-1.6848 -0.72206,-0.80229 -1.1232,-2.00572 -0.32091,-1.28365 -0.5616,-3.85097 -0.24068,-2.64754 -0.40114,-5.61599 -0.16046,-3.04869 -0.64183,-8.74492 -0.48137,-5.77645 -1.20343,-11.95405 -0.96274,-9.62742 -0.96274,-11.71337 z"
         inkscape:connector-curvature="0" />
    </g>
    <g
       transform="matrix(1,0,-0.14097332,1,0,0)"
       style="font-style:normal;font-variant:normal;font-weight:bold;font-stretch:normal;font-size:80.22854614px;line-height:125%;font-family:Purisa;-inkscape-font-specification:'Purisa, Bold';text-align:start;letter-spacing:0px;word-spacing:0px;writing-mode:lr-tb;text-anchor:start;fill:#ffffff;fill-opacity:1;stroke:#9ea0a8;stroke-width:1px;stroke-linecap:butt;stroke-linejoin:miter;stroke-opacity:1"
       id="text4203">
      <path
         d="m 278.37134,731.06231 q 0,-3.61028 -6.97989,-5.0544 -4.57302,-0.96274 -6.09737,-0.96274 -1.44411,0 -7.70194,1.20343 -4.17188,0.80228 -5.0544,1.76503 -0.88251,0.96274 -0.88251,5.21485 0,4.33234 0.48137,9.46697 0.5616,5.0544 1.1232,6.09737 0.24069,0.0802 0.96274,0.0802 2.48709,0 7.06012,-1.04297 4.57302,-1.04297 7.54148,-2.56732 1.52434,-0.80228 2.56731,-1.84525 1.04297,-1.1232 1.1232,-1.76503 0.24069,-2.00571 3.04869,-5.37531 2.808,-3.44983 2.808,-5.21486 z m -25.59291,-13.15748 q 2.64754,0 6.65897,-0.64183 4.01143,-0.72206 6.7392,-0.72206 1.1232,0 1.76503,0.0802 3.04868,0.40115 4.33234,0.5616 1.28365,0.16046 3.61028,0.64183 2.40686,0.48137 3.3696,0.96274 1.04297,0.48137 2.48709,1.36389 1.44411,0.88251 2.00571,2.08594 0.64183,1.1232 1.1232,2.808 0.48137,1.6848 0.48137,3.85097 0,3.44983 -1.04297,7.70194 -0.96274,4.17188 -2.808,4.25211 -0.0802,0.16046 -0.16046,0.64183 0,0.48137 0,0.5616 -0.88251,2.48709 -5.85668,6.57874 -4.97417,4.09166 -8.02286,4.65326 -1.76502,0.48137 -2.48708,0.72206 -0.64183,0.24068 -0.96274,0.64182 -0.32092,0.32092 -0.40115,0.32092 -1.60457,1.04297 -6.09737,1.04297 l -3.85097,0 0.72206,12.91679 q 0.40114,6.81943 0.40114,9.62743 0,3.9312 -0.72205,5.69623 -0.72206,1.76502 -2.72777,2.64754 -0.5616,0.24068 -1.20343,0.24068 -2.72777,0 -3.28937,-4.49279 -0.88252,-6.09737 -2.08594,-22.78491 -1.1232,-16.68754 -1.1232,-22.54422 l 0,-6.33806 -0.80229,0.48137 q -1.76503,1.28366 -3.3696,1.28366 -0.88251,0 -1.76503,-0.80229 -0.80228,-0.80228 -0.80228,-2.08594 0,-2.48708 4.89394,-7.54148 2.56731,-2.64754 4.01143,-3.61029 1.52434,-1.04297 3.20914,-1.04297 0.64183,0 1.60457,0.16046 0.96274,0.0802 2.16617,0.0802 z"
         style="stroke:#9ea0a8;stroke-opacity:1"
         id="path4918" />
      <path
         d="m 325.87667,742.53499 q 1.52434,0 2.64754,0.72206 1.1232,0.64183 1.44411,1.28366 0.40114,0.64182 0.40114,1.1232 0,1.60457 -3.69051,2.96845 -4.89394,1.84526 -10.6704,9.06583 -5.69622,7.22057 -6.89965,13.55862 -1.52434,8.10309 -2.56731,10.75063 -1.04297,2.72777 -3.04869,2.72777 -0.80228,0 -1.44411,-0.24069 -0.5616,-0.16045 -0.96274,-0.72205 -0.40115,-0.5616 -0.64183,-0.96275 -0.24069,-0.40114 -0.48137,-1.28365 -0.16046,-0.96275 -0.24069,-1.36389 0,-0.48137 -0.16046,-1.52434 -0.0802,-1.1232 -0.0802,-1.36389 -1.92548,-18.77348 -1.92548,-31.52982 0,-2.64754 0.32091,-4.09165 0.32092,-1.52434 1.60457,-2.64754 0.80229,-0.72206 1.76503,-0.72206 1.04297,0 1.76503,0.88251 0.72206,0.80229 0.72206,2.16617 0,2.96846 0.80228,8.424 0.88252,5.37531 1.60457,8.424 0.64183,-0.88251 1.84526,-2.72777 3.04868,-4.97417 8.50423,-8.90537 5.45554,-4.01143 9.38674,-4.01143 z"
         style="stroke:#9ea0a8;stroke-opacity:1"
         id="path4920" />
      <path
         d="m 348.67161,745.50345 q 6.73919,-5.77646 11.47268,-7.62171 4.81371,-1.84526 12.03428,-1.84526 11.15177,0 13.95977,6.25783 1.60457,3.53005 1.60457,8.74491 0,8.26354 -4.01143,16.84799 -3.9312,8.58446 -10.02857,12.03429 -5.93691,3.28937 -12.59588,3.28937 -9.78788,0 -14.92251,-5.77646 -3.61028,-4.01143 -4.73348,-6.81943 -1.04297,-2.88822 -1.04297,-7.94262 0,-10.02857 8.26354,-17.16891 z m 14.52136,31.04845 q 6.57874,0 12.11451,-8.34377 5.616,-8.424 5.616,-19.0944 0,-1.1232 -0.24068,-1.76502 -0.16046,-0.64183 -0.40115,-0.88252 -0.24068,-0.32091 -0.88251,-0.80228 -2.88823,-2.08595 -6.09737,-2.08595 -0.48137,0 -1.36388,0.16046 -0.80229,0.0802 -2.48709,0.32092 -1.60457,0.16045 -3.53006,0.32091 -2.64754,0.24069 -4.33234,1.04297 -1.60457,0.72206 -4.17188,2.88823 -4.81371,4.09165 -6.89966,7.54148 -2.00571,3.3696 -2.00571,7.38103 0,5.85668 4.09166,9.62742 4.09165,3.69052 10.59016,3.69052 z"
         style="stroke:#9ea0a8;stroke-opacity:1"
         id="path4923" />
      <path
         d="m 437.01326,760.98756 q 1.92548,0 1.92548,2.48708 0,1.92549 -4.01142,6.89966 -4.01143,4.89394 -6.97989,6.89965 -7.14034,4.73349 -12.83656,4.73349 -4.17189,0 -8.9856,-2.16617 -4.89394,-2.16617 -7.06011,-5.85669 -2.16617,-3.77074 -2.64755,-10.83085 0,-0.72206 -0.16045,-2.08594 -0.0802,-1.44412 -0.0802,-2.08595 0,-6.17759 6.33805,-12.67611 6.41829,-6.57874 11.47269,-7.78216 2.2464,-0.5616 5.85668,-0.5616 6.89965,0 12.03428,4.17188 5.13463,4.17188 5.13463,8.50423 0,1.44411 -0.88252,2.72777 -0.80228,1.28365 -2.16617,1.28365 -0.32091,0 -0.72205,-0.0802 -0.40115,-0.0802 -1.28366,-0.88251 -0.80229,-0.80228 -0.96274,-2.2464 -0.0802,-0.5616 -0.96275,-1.92548 -0.80228,-1.36389 -1.60457,-2.16617 -0.96274,-1.04298 -1.52434,-1.44412 -0.48137,-0.40114 -2.88823,-0.88251 -2.40685,-0.5616 -6.49851,-0.5616 -3.04868,0 -4.57303,0.96274 -1.52434,0.88251 -3.93119,3.9312 -6.01715,7.46125 -6.01715,13.31794 0,3.04868 0.80229,5.13462 0.80229,2.00572 1.36389,2.56732 0.5616,0.5616 2.24639,1.92548 2.2464,1.92549 3.44983,2.48709 1.20343,0.48137 3.3696,0.48137 6.89966,0 15.48411,-9.14605 4.81371,-5.13463 7.3008,-5.13463 z"
         style="stroke:#9ea0a8;stroke-opacity:1"
         id="path4925" />
      <path
         d="m 452.02352,741.25134 q 1.84526,0 2.32663,1.44411 0.5616,1.44411 0.5616,4.25211 0,3.53006 -0.0802,7.22057 -0.0802,3.69052 -0.0802,6.1776 0,10.50994 1.84526,10.50994 1.1232,0 4.73348,-3.44983 3.61029,-3.44983 5.21486,-6.7392 1.6848,-3.36959 2.808,-7.78216 1.20343,-4.41257 1.6848,-7.22057 0.5616,-2.808 1.6848,-4.81372 1.20343,-2.08594 3.12891,-2.08594 1.36389,0 2.32663,0.96274 1.04297,0.96275 1.04297,2.48709 0,1.36388 -1.84526,8.18331 -1.76503,6.7392 -1.76503,14.20045 0,2.48709 0.24069,4.57303 l 0.24069,0.88251 1.44411,-0.64182 q 1.92548,-0.96275 3.53006,-0.96275 1.44411,0 2.24639,0.72206 0.88252,0.64183 0.88252,1.6848 0,2.48708 -3.9312,4.4928 l -2.72777,1.28366 0.40114,8.02285 q -0.48137,14.6016 -1.20343,15.56434 -0.96274,1.44411 -2.96845,1.44411 -1.92549,0 -6.01714,-1.52434 -2.32663,-0.96274 -3.69052,-2.08594 -1.28365,-1.1232 -2.48708,-3.3696 -2.56731,-4.81371 -2.56731,-8.66469 0,-1.28365 0.32091,-2.08594 0.40114,-0.72205 1.44411,-2.08594 1.1232,-1.28366 1.92549,-2.48708 0.96274,-1.44412 2.88823,-2.32663 1.92548,-0.96274 2.08594,-1.1232 0.40114,-0.32092 2.08594,-1.36389 0,-2.48708 -0.88251,-4.41257 -0.24069,0.24069 -1.84526,1.84526 -1.60457,1.52434 -2.88823,2.64754 -1.28365,1.04297 -3.53005,2.08594 -2.16617,1.04297 -4.25212,1.04297 -4.17188,0 -6.57874,-4.33234 -1.1232,-2.00571 -1.44411,-4.41257 -0.32092,-2.40685 -0.32092,-9.06582 0,-10.1088 0.64183,-14.36091 0.72206,-4.33234 3.3696,-4.33234 z m 19.17462,53.19152 q 0.40115,-0.88251 0.40115,-2.808 0,-1.52434 -0.32092,-3.61028 -0.24068,-2.00572 -0.5616,-3.44983 -0.32091,-1.36388 -0.32091,-1.44411 l -0.16046,-1.84526 -0.72205,0.96274 q -3.12892,4.33234 -3.12892,7.14034 0,1.04297 1.92549,2.808 1.92548,1.84526 2.88822,2.2464 z"
         style="stroke:#9ea0a8;stroke-opacity:1"
         id="path4927" />
      <path
         d="m 501.29388,745.50345 q 6.73919,-5.77646 11.47268,-7.62171 4.81371,-1.84526 12.03428,-1.84526 11.15177,0 13.95977,6.25783 1.60457,3.53005 1.60457,8.74491 0,8.26354 -4.01143,16.84799 -3.9312,8.58446 -10.02857,12.03429 -5.93691,3.28937 -12.59588,3.28937 -9.78788,0 -14.92251,-5.77646 -3.61028,-4.01143 -4.73348,-6.81943 -1.04297,-2.88822 -1.04297,-7.94262 0,-10.02857 8.26354,-17.16891 z m 14.52136,31.04845 q 6.57874,0 12.11451,-8.34377 5.616,-8.424 5.616,-19.0944 0,-1.1232 -0.24068,-1.76502 -0.16046,-0.64183 -0.40115,-0.88252 -0.24068,-0.32091 -0.88251,-0.80228 -2.88823,-2.08595 -6.09737,-2.08595 -0.48137,0 -1.36389,0.16046 -0.80228,0.0802 -2.48708,0.32092 -1.60457,0.16045 -3.53006,0.32091 -2.64754,0.24069 -4.33234,1.04297 -1.60457,0.72206 -4.17188,2.88823 -4.81372,4.09165 -6.89966,7.54148 -2.00571,3.3696 -2.00571,7.38103 0,5.85668 4.09165,9.62742 4.09166,3.69052 10.59017,3.69052 z"
         style="stroke:#9ea0a8;stroke-opacity:1"
         id="path4929" />
      <path
         d="m 555.05704,739.72699 q 0,-4.17188 2.64754,-4.17188 1.76503,0.0802 2.32663,2.16617 0.5616,2.08594 1.60457,11.71337 0.24069,2.16617 0.40114,3.3696 l 1.1232,9.14605 0.88252,-2.64754 q 1.6848,-5.21486 2.88822,-7.62171 1.28366,-2.40686 4.65326,-6.81943 6.49851,-8.58445 10.99131,-8.58445 2.96846,0 5.13463,3.28937 2.56731,3.61028 3.12891,7.22057 0.64183,3.61028 0.88251,16.52708 0.16046,8.18331 0.16046,9.94834 0,5.29508 -0.72206,7.22057 -0.72205,1.84525 -2.96845,1.84525 -1.52434,0 -2.00572,-0.80228 -0.48137,-0.88252 -0.48137,-3.44983 0,-1.20343 0.16046,-4.97417 0.16046,-3.77074 0.16046,-6.25783 0,-6.81942 -0.5616,-12.75634 -0.5616,-5.93691 -1.28366,-7.46125 -0.32091,-0.64183 -0.80228,-1.20343 -0.48138,-0.64183 -0.88252,-0.96274 -0.32091,-0.32092 -0.48137,-0.32092 -1.28366,0 -5.29508,5.37532 -3.9312,5.37531 -6.65897,10.99131 -2.808,5.93691 -3.77074,8.66468 -0.88252,2.72777 -1.44412,7.38103 -0.88251,7.46125 -1.44411,8.26354 -0.40114,0.48137 -0.88252,0.48137 -1.20342,-0.16046 -2.56731,-1.6848 -0.72206,-0.80229 -1.1232,-2.00572 -0.32091,-1.28365 -0.5616,-3.85097 -0.24068,-2.64754 -0.40114,-5.61599 -0.16046,-3.04869 -0.64183,-8.74492 -0.48137,-5.77645 -1.20343,-11.95405 -0.96274,-9.62742 -0.96274,-11.71337 z"
         style="stroke:#9ea0a8;stroke-opacity:1"
         id="path4931" />
    </g>
    <text
       xml:space="preserve"
       style="font-style:normal;font-weight:normal;font-size:44.93543625px;line-height:125%;font-family:sans-serif;letter-spacing:0px;word-spacing:0px;fill:#2e2f33;fill-opacity:1;stroke:none;stroke-width:1px;stroke-linecap:butt;stroke-linejoin:miter;stroke-opacity:1"
       x="373.01178"
       y="829.15875"
       id="text4207"
       sodipodi:linespacing="125%"><tspan
         sodipodi:role="line"
         id="tspan4209"
         x="373.01178"
         y="829.15875"
         style="font-size:45px;fill:#2e2f33;fill-opacity:1">1.0.0</tspan></text>
    <text
       xml:space="preserve"
       style="font-style:normal;font-weight:normal;font-size:21.07522583px;line-height:125%;font-family:sans-serif;letter-spacing:0px;word-spacing:0px;fill:#2e2f33;fill-opacity:1;stroke:none;stroke-width:1px;stroke-linecap:butt;stroke-linejoin:miter;stroke-opacity:1"
       x="369.8941"
       y="857.61188"
       id="text4211"
       sodipodi:linespacing="125%"><tspan
         sodipodi:role="line"
         id="tspan4213"
         x="369.8941"
         y="857.61188"
         style="font-size:20px;fill:#2e2f33;fill-opacity:1">2019-08-23</tspan></text>
    <text
       xml:space="preserve"
       style="font-style:normal;font-weight:normal;font-size:16.53279495px;line-height:125%;font-family:sans-serif;letter-spacing:0px;word-spacing:0px;fill:#000ace;fill-opacity:1;stroke:none;stroke-width:1px;stroke-linecap:butt;stroke-linejoin:miter;stroke-opacity:1"
       x="213.88336"
       y="1035.6791"
       id="text4221"
       sodipodi:linespacing="125%"><tspan
         sodipodi:role="line"
         id="tspan4223"
         x="213.88336"
         y="1035.6791"
         style="font-size:16.25px">github.com/orion-project/procyon</tspan></text>
    <text
       xml:space="preserve"
       style="font-style:normal;font-weight:normal;font-size:17.83869362px;line-height:125%;font-family:sans-serif;letter-spacing:0px;word-spacing:0px;fill:#2e2f33;fill-opacity:1;stroke:none;stroke-width:1px;stroke-linecap:butt;stroke-linejoin:miter;stroke-opacity:1"
       x="257.78534"
       y="1009.7756"
       id="text4225"
       sodipodi:linespacing="125%"><tspan
         sodipodi:role="line"
         id="tspan4227"
         x="257.78534"
         y="1009.7756"
         style="font-size:16.25px;fill:#2e2f33;fill-opacity:1">Chunosov N.I. © 2017-2019</tspan></text>
    <text
       sodipodi:linespacing="125%"
       id="text4314"
       y="980.72198"
       x="325.737"
       style="font-style:normal;font-weight:normal;font-size:16.53279495px;line-height:125%;font-family:sans-serif;letter-spacing:0px;word-spacing:0px;fill:#000ace;fill-opacity:1;stroke:none;stroke-width:1px;stroke-linecap:butt;stroke-linejoin:miter;stroke-opacity:1"
       xml:space="preserve"><tspan
         style="font-size:16.25px"
         y="980.72198"
         x="325.737"
         id="tspan4316"
         sodipodi:role="line">Powered by Qt 5.10</tspan></text>
  </g>
  <g
     inkscape:groupmode="layer"
     id="layer4"
     inkscape:label="face">
    <g
       id="g4372"
       style="font-style:oblique;font-variant:normal;font-weight:bold;font-stretch:normal;font-size:26.42479515px;line-height:125%;font-family:Purisa;-inkscape-font-specification:'Purisa, Bold Oblique';text-align:start;letter-spacing:0px;word-spacing:0px;writing-mode:lr-tb;text-anchor:start;fill:#9ea0a8;fill-opacity:1;stroke:none;stroke-width:0.5;stroke-linecap:butt;stroke-linejoin:miter;stroke-miterlimit:4;stroke-dasharray:none;stroke-opacity:1"
       transform="matrix(0.9947233,0,0,1.0053047,0.5,-19.5)">
      <path
         inkscape:connector-curvature="0"
         id="path4374"
         style="fill:#9ea0a8;fill-opacity:1;stroke:none;stroke-width:0.5;stroke-miterlimit:4;stroke-dasharray:none;stroke-opacity:1"
         d="m 317.68034,214.51206 q 0,0.47565 0.0793,0.60777 0.1057,0.1057 0.50208,0.1057 0.81916,0 3.51449,-0.55492 2.72176,-0.55492 5.12641,-1.08342 2.43108,-0.55492 2.51036,-0.55492 0.39637,0 0.73989,0.29067 0.36995,0.29068 0.36995,0.71347 0,0.5285 -0.81917,1.08342 -1.05699,0.71347 -5.62848,1.74404 -4.57149,1.00414 -7.21397,1.00414 -1.10984,0 -1.53264,-0.3171 -0.42279,-0.34352 -0.42279,-1.50621 0,-1.69119 1.18911,-8.53521 1.21554,-6.87045 1.77046,-9.6979 0.2114,-1.03057 0.9513,-1.03057 0.42279,0 0.71347,0.47565 0.29067,0.44922 0.29067,1.08341 0,1.34767 -1.08342,8.08599 -1.05699,6.7119 -1.05699,8.08599 z" />
      <path
         inkscape:connector-curvature="0"
         id="path4376"
         style="fill:#9ea0a8;fill-opacity:1;stroke:none;stroke-width:0.5;stroke-miterlimit:4;stroke-dasharray:none;stroke-opacity:1"
         d="m 343.82736,207.27166 q 0.1057,-0.13212 0.1057,-0.23782 0,-0.1057 -0.13213,-0.26425 -0.13212,-0.15855 -0.47564,-0.47564 l -0.3171,-0.3171 q -0.68705,-0.6342 -1.03057,-0.79274 -0.34352,-0.15855 -1.00414,-0.15855 -1.32124,0 -1.98186,0.2114 -0.66062,0.18497 -1.47979,0.84559 -2.48393,2.00828 -2.61605,2.5632 0.1057,0.0264 0.44922,0.0264 2.5632,0 7.29324,-0.89844 0.47565,-0.0793 0.79275,-0.23783 0.31709,-0.15855 0.39637,-0.26425 z m 1.18911,4.67719 q 1.03057,-0.71347 1.42694,-0.71347 0.39637,0 0.39637,0.39638 0,0.52849 -1.00414,1.71761 -0.97772,1.16269 -2.08756,1.98186 -3.48807,2.53678 -6.63262,2.53678 -2.19326,0 -3.77875,-1.47979 -1.58548,-1.50621 -1.58548,-4.17512 0,-2.21968 0.92486,-3.91087 0.92487,-1.63834 3.22383,-3.4088 2.29896,-1.79688 4.06942,-1.79688 0.44922,0 1.37409,0.0793 1.40051,0.1057 1.95543,0.29067 0.55492,0.15855 1.21554,0.66062 0.6342,0.50208 1.08342,1.34767 0.47564,0.84559 0.47564,1.61191 0,0.55492 -0.26424,1.00414 -0.26425,0.4228 -0.60777,0.68705 -0.34353,0.26425 -0.97772,0.50207 -0.6342,0.2114 -1.10984,0.3171 -0.44922,0.1057 -1.18912,0.23782 -2.6689,0.50207 -5.41708,0.66062 l -2.32538,0.1057 -0.13213,0.68704 q -0.1057,0.58135 -0.1057,0.79275 0,1.24196 1.24197,2.48393 1.13627,1.16269 2.61605,1.16269 1.16269,0 2.61606,-0.68705 1.45336,-0.71346 2.51035,-1.55906 1.08342,-0.84559 2.08756,-1.53264 z" />
      <path
         inkscape:connector-curvature="0"
         style="fill:#9ea0a8;fill-opacity:1;stroke:none;stroke-width:0.5;stroke-miterlimit:4;stroke-dasharray:none;stroke-opacity:1"
         id="path4378"
         d="m 351.37447,218.3965 q -0.71347,0 -1.03056,-0.31709 -0.3171,-0.3171 -0.3171,-1.29482 0,-0.97772 0.18497,-1.63834 0.18498,-0.92486 0.29067,-1.87616 0.1057,-0.97771 0.29068,-3.01242 0.18497,-2.06114 0.42279,-4.2544 l 0.3171,-2.85387 q -0.84559,0.0528 -2.37823,0.31709 -1.50621,0.23783 -2.00828,0.23783 -0.97772,0 -0.97772,-0.6342 0,-0.84559 1.05699,-1.26839 1.08342,-0.42279 2.61605,-0.63419 1.55907,-0.23783 1.98186,-0.44922 0.2114,-0.18498 0.44923,-1.13627 0.21139,-0.95129 0.29067,-2.48393 0.0793,-1.53264 0.34352,-2.7746 0.18497,-0.8456 0.71347,-1.24197 0.55492,-0.4228 1.08342,-0.4228 0.71347,0 0.71347,0.6342 0,0.58134 -0.3171,3.46165 -0.29067,2.85387 -0.3171,3.35595 0.23782,-0.0264 1.45336,-0.2114 1.24197,-0.2114 1.87617,-0.2114 1.47978,0 1.47978,0.79274 0,1.21554 -3.56734,1.77046 l -1.53264,0.23783 -0.66062,4.01657 q -0.60777,3.75232 -0.76632,7.02899 -0.15855,3.25025 -0.23782,3.69947 -0.23783,1.16269 -1.45337,1.16269 z" />
      <path
         inkscape:connector-curvature="0"
         id="path4380"
         style="fill:#9ea0a8;fill-opacity:1;stroke:none;stroke-width:0.5;stroke-miterlimit:4;stroke-dasharray:none;stroke-opacity:1"
         d="m 360.31778,201.37894 q 0,-0.18498 0.0793,-0.55493 0.1057,-0.36994 0.29067,-0.87201 0.2114,-0.50207 0.6342,-0.8456 0.44922,-0.36994 1.00414,-0.36994 0.71347,0 1.87616,0.18497 1.18912,0.18497 1.37409,0.29067 0.15855,0.18498 0.15855,0.39637 0,0.44923 -0.39637,1.24197 -0.36995,0.76632 -0.79275,1.16269 -0.29067,0.29067 -0.87201,1.71761 -0.55493,1.42694 -0.7399,1.69119 -0.36995,0.55492 -1.03057,0.55492 -0.66062,0 -1.13626,-0.60777 -0.44922,-0.6342 -0.44922,-1.61191 0,-0.3171 0.0528,-0.76632 0.0793,-0.47565 0.0793,-0.79275 0,-0.26424 -0.0793,-0.47564 -0.0528,-0.2114 -0.0528,-0.34352 z" />
      <path
         inkscape:connector-curvature="0"
         id="path4382"
         style="fill:#9ea0a8;fill-opacity:1;stroke:none;stroke-width:0.5;stroke-miterlimit:4;stroke-dasharray:none;stroke-opacity:1"
         d="m 363.086,216.28252 q 0,-0.68704 0.36994,-1.10984 0.36995,-0.44922 0.7399,-0.44922 0.66062,0 0.97772,0.92486 0.18497,0.55493 1.03056,1.057 0.87202,0.47564 1.71762,0.47564 1.08341,0 2.27253,-1.26839 1.18911,-1.26839 1.18911,-1.79688 0,-0.89845 -1.13626,-1.26839 -0.8456,-0.26425 -1.82331,-0.66062 -0.9513,-0.4228 -1.42694,-0.5285 -0.68705,-0.15855 -1.71761,-0.97772 -1.03057,-0.84559 -1.03057,-1.82331 0,-1.13626 1.95543,-2.90672 1.98186,-1.79689 4.33367,-2.27254 l 2.69533,-0.23782 q 0.71347,0 1.03057,0.18497 0.34352,0.15855 0.76631,0.79275 0.58135,0.84559 0.58135,1.40051 0,0.29067 -0.2114,0.5285 -0.2114,0.23782 -0.60777,0.23782 -0.42279,0 -0.68704,-0.18497 -0.23783,-0.2114 -0.36995,-0.4228 -0.1057,-0.23782 -0.44922,-0.4228 -0.3171,-0.2114 -0.87202,-0.2114 -1.16269,0 -2.61605,0.68705 -1.45337,0.66062 -2.37824,1.42694 -0.89844,0.73989 -0.89844,1.05699 0,0.34352 0.66062,0.84559 0.68705,0.47565 2.00829,0.89845 2.27253,0.73989 3.1974,1.40051 0.95129,0.66062 0.95129,1.71761 0,0.58135 -0.3171,1.50622 -0.3171,0.89844 -0.68704,1.45336 -0.55492,0.87202 -1.84974,1.79689 -1.26839,0.95129 -2.40466,0.95129 -0.81916,0 -2.08755,-0.23782 -1.2684,-0.2114 -1.90259,-0.5285 -0.4228,-0.23782 -0.71347,-0.81917 -0.29067,-0.58134 -0.29067,-1.21554 z" />
      <path
         inkscape:connector-curvature="0"
         id="path4384"
         style="fill:#9ea0a8;fill-opacity:1;stroke:none;stroke-width:0.5;stroke-miterlimit:4;stroke-dasharray:none;stroke-opacity:1"
         d="m 398.4037,202.64733 q 0.95129,0 1.47979,1.05699 0.52849,1.03056 0.52849,2.11398 0,2.11398 -1.53264,9.01086 -0.36994,1.74403 -0.73989,2.37823 -0.36995,0.60777 -1.10984,0.60777 -0.6342,0 -0.6342,-0.55492 0,-0.1057 0.92487,-4.30724 0.95129,-4.22797 0.95129,-6.3948 0,-0.47565 -0.15855,-0.79275 -0.15854,-0.34352 -0.29067,-0.4228 -0.1057,-0.10569 -0.15855,-0.10569 -0.42279,0 -2.11398,1.77046 -1.69119,1.77046 -2.95958,3.62019 -1.34766,1.95544 -1.84973,2.85388 -0.47565,0.89844 -0.97772,2.43108 -0.60777,1.79689 -0.84559,2.32538 -0.23783,0.55493 -0.55493,0.55493 -0.10569,0 -0.23782,-0.0793 -0.13212,-0.0529 -0.3171,-0.2114 -0.15854,-0.15855 -0.29067,-0.47564 -0.1057,-0.3171 -0.1057,-0.7399 0,-0.55492 0.15855,-1.66476 0.15855,-1.13627 0.47565,-3.35595 0.31709,-2.21968 0.55492,-4.62434 0.34352,-3.4088 0.58134,-4.14869 0.36995,-1.08342 1.08342,-1.08342 0.34352,0 0.47565,0.23783 0.15855,0.21139 0.15855,0.84559 0,0.63419 -0.39638,4.59791 l -0.29067,3.01243 0.47565,-0.87202 q 0.92486,-1.69118 1.50621,-2.48393 0.58135,-0.79274 2.00828,-2.27253 2.74818,-2.82745 4.20155,-2.82745 z" />
      <path
         inkscape:connector-curvature="0"
         id="path4386"
         style="fill:#9ea0a8;fill-opacity:1;stroke:none;stroke-width:0.5;stroke-miterlimit:4;stroke-dasharray:none;stroke-opacity:1"
         d="m 413.79052,202.56805 q 2.45751,0 3.35595,0.81917 0.92487,0.79274 0.92487,2.40466 0,2.7746 -2.08756,6.34195 -2.08756,3.56734 -4.75646,4.88858 -2.21968,1.08342 -4.38652,1.08342 -1.47979,0 -2.69533,-0.50207 -1.18911,-0.47565 -1.82331,-1.40051 -1.10984,-1.58549 -1.10984,-2.95958 0,-0.76632 0.23782,-1.90259 0.68705,-3.27667 3.9373,-5.6549 2.64248,-1.90259 4.33367,-2.51036 1.69118,-0.60777 4.06941,-0.60777 z m 2.03471,3.80517 q 0,-0.50207 -0.71347,-0.89844 -0.71347,-0.4228 -1.47978,-0.4228 -0.15855,0 -0.44923,0.0529 -0.26424,0.0264 -0.84559,0.1057 -0.55492,0.0529 -1.18912,0.1057 -0.89844,0.0793 -1.50621,0.34352 -0.60777,0.23783 -1.58549,0.95129 -2.00828,1.45337 -3.03885,2.85388 -1.03056,1.37409 -1.03056,3.03885 0,1.53264 1.08341,2.48394 1.08342,0.92486 2.93315,0.92486 2.16684,0 4.57149,-2.74818 2.43108,-2.7746 3.17098,-6.2891 0.0793,-0.31709 0.0793,-0.50207 z" />
      <path
         inkscape:connector-curvature="0"
         id="path4388"
         style="fill:#9ea0a8;fill-opacity:1;stroke:none;stroke-width:0.5;stroke-miterlimit:4;stroke-dasharray:none;stroke-opacity:1"
         d="m 423.9664,218.3965 q -0.71347,0 -1.03057,-0.31709 -0.3171,-0.3171 -0.3171,-1.29482 0,-0.97772 0.18497,-1.63834 0.18498,-0.92486 0.29068,-1.87616 0.1057,-0.97771 0.29067,-3.01242 0.18497,-2.06114 0.4228,-4.2544 l 0.31709,-2.85387 q -0.84559,0.0528 -2.37823,0.31709 -1.50621,0.23783 -2.00828,0.23783 -0.97772,0 -0.97772,-0.6342 0,-0.84559 1.05699,-1.26839 1.08342,-0.42279 2.61606,-0.63419 1.55906,-0.23783 1.98186,-0.44922 0.2114,-0.18498 0.44922,-1.13627 0.2114,-0.95129 0.29067,-2.48393 0.0793,-1.53264 0.34352,-2.7746 0.18498,-0.8456 0.71347,-1.24197 0.55492,-0.4228 1.08342,-0.4228 0.71347,0 0.71347,0.6342 0,0.58134 -0.3171,3.46165 -0.29067,2.85387 -0.3171,3.35595 0.23783,-0.0264 1.45337,-0.2114 1.24196,-0.2114 1.87616,-0.2114 1.47979,0 1.47979,0.79274 0,1.21554 -3.56735,1.77046 l -1.53264,0.23783 -0.66062,4.01657 q -0.60777,3.75232 -0.76632,7.02899 -0.15855,3.25025 -0.23782,3.69947 -0.23782,1.16269 -1.45336,1.16269 z" />
      <path
         inkscape:connector-curvature="0"
         id="path4390"
         style="fill:#9ea0a8;fill-opacity:1;stroke:none;stroke-width:0.5;stroke-miterlimit:4;stroke-dasharray:none;stroke-opacity:1"
         d="m 442.31338,207.27166 q 0.1057,-0.13212 0.1057,-0.23782 0,-0.1057 -0.13213,-0.26425 -0.13212,-0.15855 -0.47564,-0.47564 l -0.3171,-0.3171 q -0.68705,-0.6342 -1.03057,-0.79274 -0.34352,-0.15855 -1.00414,-0.15855 -1.32124,0 -1.98186,0.2114 -0.66062,0.18497 -1.47979,0.84559 -2.48393,2.00828 -2.61605,2.5632 0.10569,0.0264 0.44922,0.0264 2.5632,0 7.29324,-0.89844 0.47565,-0.0793 0.79274,-0.23783 0.3171,-0.15855 0.39638,-0.26425 z m 1.18911,4.67719 q 1.03057,-0.71347 1.42694,-0.71347 0.39637,0 0.39637,0.39638 0,0.52849 -1.00414,1.71761 -0.97772,1.16269 -2.08756,1.98186 -3.48807,2.53678 -6.63262,2.53678 -2.19326,0 -3.77875,-1.47979 -1.58549,-1.50621 -1.58549,-4.17512 0,-2.21968 0.92487,-3.91087 0.92487,-1.63834 3.22383,-3.4088 2.29896,-1.79688 4.06942,-1.79688 0.44922,0 1.37409,0.0793 1.40051,0.1057 1.95543,0.29067 0.55492,0.15855 1.21554,0.66062 0.6342,0.50208 1.08342,1.34767 0.47564,0.84559 0.47564,1.61191 0,0.55492 -0.26424,1.00414 -0.26425,0.4228 -0.60777,0.68705 -0.34353,0.26425 -0.97772,0.50207 -0.6342,0.2114 -1.10984,0.3171 -0.44922,0.1057 -1.18912,0.23782 -2.6689,0.50207 -5.41708,0.66062 l -2.32538,0.1057 -0.13213,0.68704 q -0.1057,0.58135 -0.1057,0.79275 0,1.24196 1.24197,2.48393 1.13626,1.16269 2.61605,1.16269 1.16269,0 2.61606,-0.68705 1.45336,-0.71346 2.51035,-1.55906 1.08342,-0.84559 2.08756,-1.53264 z" />
      <path
         inkscape:connector-curvature="0"
         id="path4392"
         style="fill:#9ea0a8;fill-opacity:1;stroke:none;stroke-width:0.5;stroke-miterlimit:4;stroke-dasharray:none;stroke-opacity:1"
         d="m 462.90341,202.22453 q 0.47565,0 0.58135,0.29067 0.13212,0.26425 0.13212,0.8456 0,2.08755 -0.95129,7.55749 -0.92487,5.46993 -1.37409,6.05127 -0.60777,0.4228 -1.21554,0.4228 -0.39637,0 -0.66062,-0.13212 -0.23782,-0.13213 -0.3171,-0.23783 -0.0528,-0.13212 -0.0528,-0.21139 0,-0.66062 0.76632,-5.65491 0.79274,-4.99429 1.16269,-6.63262 0.34352,-1.58549 0.97772,-1.98186 0.5285,-0.3171 0.95129,-0.3171 z m 0.0264,-5.46993 q 0,-0.66062 0.52849,-1.08342 0.5285,-0.44922 0.9513,-0.44922 0.34352,0 0.81916,0.3171 0.47565,0.29067 0.47565,0.76631 0,0.50208 -0.44922,1.1627 -0.44922,0.66062 -1.08342,0.66062 -0.47564,0 -0.87202,-0.36995 -0.36994,-0.39637 -0.36994,-1.00414 z" />
      <path
         inkscape:connector-curvature="0"
         id="path4394"
         style="fill:#9ea0a8;fill-opacity:1;stroke:none;stroke-width:0.5;stroke-miterlimit:4;stroke-dasharray:none;stroke-opacity:1"
         d="m 471.76142,218.3965 q -0.71347,0 -1.03056,-0.31709 -0.3171,-0.3171 -0.3171,-1.29482 0,-0.97772 0.18497,-1.63834 0.18498,-0.92486 0.29068,-1.87616 0.10569,-0.97771 0.29067,-3.01242 0.18497,-2.06114 0.4228,-4.2544 l 0.31709,-2.85387 q -0.84559,0.0528 -2.37823,0.31709 -1.50621,0.23783 -2.00828,0.23783 -0.97772,0 -0.97772,-0.6342 0,-0.84559 1.05699,-1.26839 1.08342,-0.42279 2.61606,-0.63419 1.55906,-0.23783 1.98186,-0.44922 0.21139,-0.18498 0.44922,-1.13627 0.2114,-0.95129 0.29067,-2.48393 0.0793,-1.53264 0.34352,-2.7746 0.18498,-0.8456 0.71347,-1.24197 0.55492,-0.4228 1.08342,-0.4228 0.71347,0 0.71347,0.6342 0,0.58134 -0.3171,3.46165 -0.29067,2.85387 -0.3171,3.35595 0.23783,-0.0264 1.45337,-0.2114 1.24196,-0.2114 1.87616,-0.2114 1.47979,0 1.47979,0.79274 0,1.21554 -3.56735,1.77046 l -1.53264,0.23783 -0.66062,4.01657 q -0.60777,3.75232 -0.76632,7.02899 -0.15855,3.25025 -0.23782,3.69947 -0.23783,1.16269 -1.45337,1.16269 z" />
      <path
         inkscape:connector-curvature="0"
         id="path4396"
         style="fill:#9ea0a8;fill-opacity:1;stroke:none;stroke-width:0.5;stroke-miterlimit:4;stroke-dasharray:none;stroke-opacity:1"
         d="m 482.9008,204.76131 q 0.1057,-0.34352 0.1057,-0.44922 0,-0.1057 -0.0793,-0.23783 -0.0793,-0.13212 -0.0793,-0.29067 0,-0.0529 0.0528,-0.3171 l 0,-0.0793 q 0.15855,-0.71347 1.03056,-0.71347 0.2114,0 0.89845,0.1057 0.68704,0.0793 1.10984,0.1057 l 1.24196,0.15855 -0.36994,1.29481 q -0.23783,0.76632 -1.29482,2.85388 -1.05699,2.06113 -1.77046,3.8316 -0.39637,1.00414 -1.03057,1.00414 -0.60777,0 -0.60777,-0.97772 l 0.66062,-5.81345 q 0.0264,-0.13213 0.13213,-0.47565 z m 1.00414,10.27924 q 0,0.79275 -0.68704,1.82332 -0.66062,1.03056 -1.34767,1.03056 -0.29067,0 -0.63419,-0.23782 -0.3171,-0.2114 -0.39638,-0.2114 -0.0793,0 -0.13212,0.0529 -0.36995,-0.0529 -0.60777,-0.34352 -0.23782,-0.3171 -0.23782,-0.68705 0,-0.52849 0.63419,-1.29481 0.6342,-0.79275 1.16269,-1.03057 0.29068,-0.13212 0.79275,-0.13212 1.45336,0 1.45336,1.03056 z" />
    </g>
    <g
       transform="matrix(-0.29745792,0.06383842,0.06383842,0.29745792,246.72879,-16.612687)"
       style="display:inline"
       id="g4368">
      <path
         sodipodi:nodetypes="ccscccsssc"
         inkscape:connector-curvature="0"
         id="path4948"
         d="M 702.90867,973.78485 C 765.87343,918.33915 808.06628,850.13881 855.224,785.39484 908.85964,706.97032 966.31366,710.74388 995.51447,565.30283 1017.6237,455.18272 985.25626,359.10784 841.23916,306.07007 c 3.07141,-71.98976 -19.57949,-143.82143 -59.2577,-214.83961 45.9977,57.17804 68.27829,131.83334 70.55112,209.41631 125.49939,52.20201 174.96112,130.59251 154.46932,264.79676 -7.12349,46.65329 -15.50073,90.06066 -47.27624,127.33454 -43.52935,51.06159 -64.21885,51.17605 -104.84069,109.99219 -41.46861,60.04218 -89.75932,126.0297 -151.9763,171.01459 z"
         style="fill:#3a2727;fill-opacity:0.59210528;fill-rule:evenodd;stroke:none;stroke-width:1px;stroke-linecap:butt;stroke-linejoin:miter;stroke-opacity:1" />
      <path
         sodipodi:nodetypes="csc"
         inkscape:connector-curvature="0"
         id="path4847"
         d="M 174.72075,652.46713 C 97.376129,674.34653 -43.889627,811.02084 36.130979,900.29707 81.140585,950.51275 212.45893,908.38372 257.8893,881.48249"
         style="fill:#f1eee5;fill-opacity:1;fill-rule:evenodd;stroke:#404040;stroke-width:2.99999976;stroke-linecap:butt;stroke-linejoin:miter;stroke-miterlimit:4;stroke-dasharray:none;stroke-opacity:1" />
      <path
         sodipodi:nodetypes="ssccscccsscs"
         inkscape:connector-curvature="0"
         id="path4880"
         d="M 684.38963,40.831848 C 668.59539,43.750836 651.64766,51.629056 633.56486,65.640295 561.50311,121.47634 545.96313,187.64616 548.79534,273.8182 l -0.028,0.67943 c -79.42558,2.42569 -159.64767,27.09515 -231.62819,88.74242 -165.74272,141.94932 -174.36295,406.56713 -84.7011,508.9208 -1.89878,97.94998 111.83556,178.35875 214.44188,152.06675 36.65893,-10.798 73.08396,2.7026 112.27336,5.6289 99.18185,-0.3393 189.85989,-78.13536 299.55368,-249.25515 C 891.48134,729.47412 967.81834,704.71972 987.44463,607.68701 1016.5901,463.59135 1004.6678,377.10871 841.19989,305.7979 849.04657,242.95992 794.94931,20.398942 684.38963,40.831848 Z"
         style="fill:#f1eee5;fill-opacity:1;fill-rule:evenodd;stroke:#404040;stroke-width:4.99999952;stroke-linecap:butt;stroke-linejoin:miter;stroke-miterlimit:4;stroke-dasharray:none;stroke-opacity:1" />
      <path
         sodipodi:nodetypes="ccssccsccsscccssccc"
         inkscape:connector-curvature="0"
         id="path4885"
         d="M 737.64268,781.73662 C 826.10205,734.80207 923.64602,652.56911 913.93663,573.26721 844.19893,531.25099 722.36114,457.42553 607.6123,475.24648 c -74.28628,11.53694 -96.78777,74.27324 -102.15516,105.85814 -4.67631,27.51819 3.23758,53.35145 -8.45698,71.63458 -23.03088,-29.93801 -50.99109,-59.15781 -91.45333,-86.55854 7.75766,-19.78543 33.18143,-27.30642 40.13799,-43.83675 37.70899,-89.60489 125.60161,-115.36853 207.06881,-120.40052 85.47467,-21.12998 175.66499,-15.4612 275.23116,-3.12772 -94.12616,-61.80891 -267.69841,-147.71945 -435.3261,-118.72083 -60.63131,10.48878 -120.4847,36.0111 -175.51953,83.14533 -165.74273,141.94929 -171.81225,405.83824 -81.97532,508.16286 -1.96392,-92.44967 -15.73005,-186.93753 101.59559,-256.83326 9.51998,57.65093 27.63796,96.32479 48.75806,128.37652 -25.10305,-23.68279 -124.33819,-16.28416 -113.23909,81.39706 7.32022,64.4241 24.52694,61.48683 36.03097,112.99182 12.7293,56.99069 72.49019,74.77803 105.97549,61.09624 13.98847,14.11909 20.28221,16.36749 33.82833,24.44939 143.39102,30.9974 267.1461,-112.26499 289.52949,-241.14418 z"
         style="fill:#1b0800;fill-opacity:0.54605264;fill-rule:evenodd;stroke:none;stroke-width:1px;stroke-linecap:butt;stroke-linejoin:miter;stroke-opacity:1" />
      <path
         sodipodi:nodetypes="ccsccc"
         inkscape:connector-curvature="0"
         id="path4839"
         d="m 443.99518,941.74051 c -14.52036,-161.60802 -82.21401,-32.4128 -56.55035,19.32331 23.42475,52.51748 83.31792,82.99268 135.66641,74.67408 C 672.12157,1012.0588 738.83848,883.94239 737.90012,781.65085 652.3629,699.26868 492.3325,728.79006 540.12038,862.32944 Z"
         style="fill:#ffffff;fill-opacity:1;fill-rule:evenodd;stroke:none;stroke-width:0.99999994px;stroke-linecap:butt;stroke-linejoin:miter;stroke-opacity:1" />
      <path
         sodipodi:nodetypes="csscc"
         inkscape:connector-curvature="0"
         id="path4837"
         d="m 444.1473,937.86516 c -5.16656,29.66581 13.94051,53.63676 28.95017,65.42924 39.98034,31.4108 115.63681,-26.55068 121.4961,-49.23514 13.18318,-51.03884 -15.80459,-89.11742 -55.70856,-91.41246 -42.75568,17.78584 -79.59043,48.1717 -94.73771,75.21836 z"
         style="fill:#320f00;fill-opacity:1;fill-rule:evenodd;stroke:none;stroke-width:1px;stroke-linecap:butt;stroke-linejoin:miter;stroke-opacity:1" />
      <path
         sodipodi:nodetypes="ssss"
         inkscape:connector-curvature="0"
         id="path4849"
         d="m 576.797,667.725 c -16.51165,4.31185 -24.81935,-4.24737 -38.40474,-39.38585 -26.70167,-69.0637 73.79964,-166.02617 127.85326,-82.28686 45.18897,70.00625 -37.18654,108.0249 -89.44852,121.67271 z"
         style="fill:#222635;fill-opacity:1;fill-rule:evenodd;stroke:none;stroke-width:1px;stroke-linecap:butt;stroke-linejoin:miter;stroke-opacity:1" />
      <path
         sodipodi:nodetypes="cssc"
         inkscape:connector-curvature="0"
         id="path4851"
         d="m 392.12394,809.53617 c -24.62286,34.31145 -72.39088,73.38648 -93.77937,36.11667 -21.67962,-37.77699 6.36836,-72.93789 30.42421,-82.79086 54.98197,-22.51953 57.98192,19.50996 63.35516,46.67419 z"
         style="fill:#222635;fill-opacity:1;fill-rule:evenodd;stroke:none;stroke-width:1px;stroke-linecap:butt;stroke-linejoin:miter;stroke-opacity:1" />
      <ellipse
         transform="matrix(0.70118641,-0.71297799,0.71297652,0.70118791,0,0)"
         ry="26.393299"
         rx="23.22596"
         cy="830.41992"
         cx="40.160725"
         id="path4874"
         style="opacity:1;fill:#ffffff;fill-opacity:0.67763157;fill-rule:nonzero;stroke:none;stroke-width:1;stroke-linecap:butt;stroke-linejoin:round;stroke-miterlimit:4;stroke-dasharray:none;stroke-dashoffset:0;stroke-opacity:1" />
      <ellipse
         transform="matrix(0.62207787,-0.78295538,0.75471128,0.65605707,0,0)"
         style="opacity:1;fill:#ffffff;fill-opacity:0.71710528;fill-rule:nonzero;stroke:none;stroke-width:1;stroke-linecap:butt;stroke-linejoin:round;stroke-miterlimit:4;stroke-dasharray:none;stroke-dashoffset:0;stroke-opacity:1"
         id="ellipse4876"
         cx="-359.52557"
         cy="768.38068"
         rx="12.242631"
         ry="15.828861" />
      <path
         sodipodi:nodetypes="ccccc"
         inkscape:connector-curvature="0"
         id="path4890"
         d="m 384.9786,955.86669 c 28.39103,88.05581 115.97124,88.53631 141.04593,85.51641 119.70055,-17.7471 218.02598,-108.16852 211.93413,-259.35216 -4.04291,135.34371 -90.74743,233.63776 -212.84398,253.69286 -38.69452,5.0477 -108.04323,-6.3209 -140.13608,-79.85711 z"
         style="color:#000000;font-style:normal;font-variant:normal;font-weight:normal;font-stretch:normal;font-size:medium;line-height:normal;font-family:sans-serif;text-indent:0;text-align:start;text-decoration:none;text-decoration-line:none;text-decoration-style:solid;text-decoration-color:#000000;letter-spacing:normal;word-spacing:normal;text-transform:none;direction:ltr;block-progression:tb;writing-mode:lr-tb;baseline-shift:baseline;text-anchor:start;white-space:normal;clip-rule:nonzero;display:inline;overflow:visible;visibility:visible;opacity:1;isolation:auto;mix-blend-mode:normal;color-interpolation:sRGB;color-interpolation-filters:linearRGB;solid-color:#000000;solid-opacity:1;fill:#404040;fill-opacity:1;fill-rule:evenodd;stroke:none;stroke-width:5;stroke-linecap:butt;stroke-linejoin:miter;stroke-miterlimit:4;stroke-dasharray:none;stroke-dashoffset:0;stroke-opacity:1;color-rendering:auto;image-rendering:auto;shape-rendering:auto;text-rendering:auto;enable-background:accumulate" />
      <path
         sodipodi:nodetypes="cssccccscccc"
         inkscape:connector-curvature="0"
         id="path4902"
         d="M 188.95824,778.35351 C 169.58125,672.47181 185.5149,508.20076 296.04697,396.38997 374.5815,316.94688 463.70905,289.53312 547.16021,286.51303 700.54192,280.96215 834.58202,347.42287 926.51894,398.37543 831.74337,331.13432 681.69162,271.11997 550.61818,274.25763 545.50567,191.38119 564.00236,78.948591 695.94021,36.905639 642.30038,35.48409 528.46292,123.97936 538.75049,272.40533 445.49832,281.29357 350.51028,316.52165 278.77595,397.24378 212.02574,472.35731 179.8158,558.49708 175.24311,642.02928 125.17001,657.79988 28.325049,727.04163 11.772228,825.68424 36.402902,727.27859 138.10099,660.81919 175.40889,652.58721 c -0.81406,43.5177 4.34846,85.9959 13.54935,125.7663 z"
         style="fill:#3a2727;fill-opacity:0.59215686;fill-rule:evenodd;stroke:none;stroke-width:1px;stroke-linecap:butt;stroke-linejoin:miter;stroke-opacity:1" />
      <path
         sodipodi:nodetypes="cscc"
         inkscape:connector-curvature="0"
         id="path4904"
         d="M 640.70458,281.35402 C 622.23605,252.02163 594.79927,174.87428 642.4198,116.37342 736.81666,0.4087785 828.58589,228.98623 804.93808,330.99958 773.74327,315.84723 689.886,287.51719 640.70458,281.35402 Z"
         style="fill:url(#linearGradient4920);fill-opacity:1;fill-rule:evenodd;stroke:none;stroke-width:1px;stroke-linecap:butt;stroke-linejoin:miter;stroke-opacity:1" />
      <path
         sodipodi:nodetypes="cscc"
         inkscape:connector-curvature="0"
         id="path4922"
         d="M 173.44892,700.85618 C 108.31332,724.31773 16.381258,827.94819 79.800493,885.2379 111.0109,913.43179 170.53379,879.41285 205.5153,836.04516 185.02799,796.41206 175.85307,750.80504 173.44892,700.85618 Z"
         style="fill:url(#linearGradient4930);fill-opacity:1;fill-rule:evenodd;stroke:none;stroke-width:1px;stroke-linecap:butt;stroke-linejoin:miter;stroke-opacity:1" />
      <path
         sodipodi:nodetypes="csscc"
         inkscape:connector-curvature="0"
         id="path4932"
         d="m 563.11484,542.22732 c -21.22534,26.54195 -35.31898,62.28297 -12.62549,103.83826 5.13864,9.40965 10.87226,21.99632 28.08528,17.52109 28.46857,-7.40155 52.36737,-19.96186 76.26829,-36.84583 -67.21405,45.85268 -129.99254,-20.25892 -91.72808,-84.51352 z"
         style="fill:#c3c3c3;fill-opacity:0.54509804;fill-rule:evenodd;stroke:none;stroke-width:1px;stroke-linecap:butt;stroke-linejoin:miter;stroke-opacity:1" />
      <path
         style="fill:#c3c3c3;fill-opacity:0.54509804;fill-rule:evenodd;stroke:none;stroke-width:1px;stroke-linecap:butt;stroke-linejoin:miter;stroke-opacity:1"
         d="m 299.24193,839.73926 c 4.85536,9.5589 10.91466,22.15635 28.08528,17.5211 8.78897,-2.37261 15.52926,-4.78641 25.59982,-12.38213 -27.64993,-4.58557 -47.56677,-28.05582 -48.47043,-57.12081 -6.04168,8.24179 -17.29783,28.19341 -5.21467,51.98184 z"
         id="path4934"
         inkscape:connector-curvature="0"
         sodipodi:nodetypes="ssccs" />
      <ellipse
         transform="matrix(0.8616804,-0.50745137,0.50745137,0.8616804,0,0)"
         ry="9.4741592"
         rx="6.5590339"
         cy="1060.5787"
         cx="107.42638"
         id="path4936"
         style="opacity:1;fill:#838383;fill-opacity:0.59210528;fill-rule:nonzero;stroke:none;stroke-width:3;stroke-linecap:butt;stroke-linejoin:round;stroke-miterlimit:4;stroke-dasharray:none;stroke-dashoffset:0;stroke-opacity:1" />
      <ellipse
         style="opacity:1;fill:#838383;fill-opacity:0.59210528;fill-rule:nonzero;stroke:none;stroke-width:3;stroke-linecap:butt;stroke-linejoin:round;stroke-miterlimit:4;stroke-dasharray:none;stroke-dashoffset:0;stroke-opacity:1"
         id="ellipse4938"
         cx="365.51358"
         cy="1047.7056"
         rx="5.4249148"
         ry="8.4430981"
         transform="matrix(0.92206988,-0.38702343,0.32503549,0.94570182,0,0)" />
      <ellipse
         style="opacity:1;fill:#838383;fill-opacity:0.59210528;fill-rule:nonzero;stroke:none;stroke-width:3;stroke-linecap:butt;stroke-linejoin:round;stroke-miterlimit:4;stroke-dasharray:none;stroke-dashoffset:0;stroke-opacity:1"
         id="ellipse4940"
         cx="-77.096397"
         cy="1033.4045"
         rx="5.6359105"
         ry="8.0947018"
         transform="matrix(0.64378574,-0.7652058,0.67691117,0.73606472,0,0)" />
      <ellipse
         inkscape:transform-center-y="0.15625543"
         inkscape:transform-center-x="0.98691966"
         transform="matrix(0.79404885,-0.60785395,0.5833467,0.81222326,0,0)"
         ry="8.3819752"
         rx="5.7494116"
         cy="1051.7255"
         cx="94.696404"
         id="ellipse4942"
         style="opacity:1;fill:#838383;fill-opacity:0.59210528;fill-rule:nonzero;stroke:none;stroke-width:3;stroke-linecap:butt;stroke-linejoin:round;stroke-miterlimit:4;stroke-dasharray:none;stroke-dashoffset:0;stroke-opacity:1" />
      <ellipse
         transform="matrix(0.27086812,-0.96261647,0.94881546,0.31583101,0,0)"
         ry="7.9541044"
         rx="5.9034128"
         cy="836.65015"
         cx="-533.73517"
         id="ellipse4944"
         style="opacity:1;fill:#838383;fill-opacity:0.59210528;fill-rule:nonzero;stroke:none;stroke-width:3;stroke-linecap:butt;stroke-linejoin:round;stroke-miterlimit:4;stroke-dasharray:none;stroke-dashoffset:0;stroke-opacity:1" />
      <ellipse
         transform="matrix(0.98885177,-0.14890322,0.13211758,0.99123405,0,0)"
         ry="8.2992954"
         rx="5.4186511"
         cy="986.91333"
         cx="519.94757"
         id="ellipse4946"
         style="opacity:1;fill:#838383;fill-opacity:0.59210528;fill-rule:nonzero;stroke:none;stroke-width:3;stroke-linecap:butt;stroke-linejoin:round;stroke-miterlimit:4;stroke-dasharray:none;stroke-dashoffset:0;stroke-opacity:1" />
    </g>
    <g
       transform="matrix(0.9947233,0,0,1.0053047,0,-20)"
       style="font-style:oblique;font-variant:normal;font-weight:bold;font-stretch:normal;font-size:26.42479515px;line-height:125%;font-family:Purisa;-inkscape-font-specification:'Purisa, Bold Oblique';text-align:start;letter-spacing:0px;word-spacing:0px;writing-mode:lr-tb;text-anchor:start;fill:#ffffff;fill-opacity:1;stroke:none;stroke-width:0.5;stroke-linecap:butt;stroke-linejoin:miter;stroke-miterlimit:4;stroke-dasharray:none;stroke-opacity:1"
       id="text4318">
      <path
         d="m 317.68034,214.51206 q 0,0.47565 0.0793,0.60777 0.1057,0.1057 0.50208,0.1057 0.81916,0 3.51449,-0.55492 2.72176,-0.55492 5.12641,-1.08342 2.43108,-0.55492 2.51036,-0.55492 0.39637,0 0.73989,0.29067 0.36995,0.29068 0.36995,0.71347 0,0.5285 -0.81917,1.08342 -1.05699,0.71347 -5.62848,1.74404 -4.57149,1.00414 -7.21397,1.00414 -1.10984,0 -1.53264,-0.3171 -0.42279,-0.34352 -0.42279,-1.50621 0,-1.69119 1.18911,-8.53521 1.21554,-6.87045 1.77046,-9.6979 0.2114,-1.03057 0.9513,-1.03057 0.42279,0 0.71347,0.47565 0.29067,0.44922 0.29067,1.08341 0,1.34767 -1.08342,8.08599 -1.05699,6.7119 -1.05699,8.08599 z"
         style="stroke:none;stroke-width:0.5;stroke-miterlimit:4;stroke-dasharray:none;stroke-opacity:1"
         id="path4348"
         inkscape:connector-curvature="0" />
      <path
         d="m 343.82736,207.27166 q 0.1057,-0.13212 0.1057,-0.23782 0,-0.1057 -0.13213,-0.26425 -0.13212,-0.15855 -0.47564,-0.47564 l -0.3171,-0.3171 q -0.68705,-0.6342 -1.03057,-0.79274 -0.34352,-0.15855 -1.00414,-0.15855 -1.32124,0 -1.98186,0.2114 -0.66062,0.18497 -1.47979,0.84559 -2.48393,2.00828 -2.61605,2.5632 0.1057,0.0264 0.44922,0.0264 2.5632,0 7.29324,-0.89844 0.47565,-0.0793 0.79275,-0.23783 0.31709,-0.15855 0.39637,-0.26425 z m 1.18911,4.67719 q 1.03057,-0.71347 1.42694,-0.71347 0.39637,0 0.39637,0.39638 0,0.52849 -1.00414,1.71761 -0.97772,1.16269 -2.08756,1.98186 -3.48807,2.53678 -6.63262,2.53678 -2.19326,0 -3.77875,-1.47979 -1.58548,-1.50621 -1.58548,-4.17512 0,-2.21968 0.92486,-3.91087 0.92487,-1.63834 3.22383,-3.4088 2.29896,-1.79688 4.06942,-1.79688 0.44922,0 1.37409,0.0793 1.40051,0.1057 1.95543,0.29067 0.55492,0.15855 1.21554,0.66062 0.6342,0.50208 1.08342,1.34767 0.47564,0.84559 0.47564,1.61191 0,0.55492 -0.26424,1.00414 -0.26425,0.4228 -0.60777,0.68705 -0.34353,0.26425 -0.97772,0.50207 -0.6342,0.2114 -1.10984,0.3171 -0.44922,0.1057 -1.18912,0.23782 -2.6689,0.50207 -5.41708,0.66062 l -2.32538,0.1057 -0.13213,0.68704 q -0.1057,0.58135 -0.1057,0.79275 0,1.24196 1.24197,2.48393 1.13627,1.16269 2.61605,1.16269 1.16269,0 2.61606,-0.68705 1.45336,-0.71346 2.51035,-1.55906 1.08342,-0.84559 2.08756,-1.53264 z"
         style="stroke:none;stroke-width:0.5;stroke-miterlimit:4;stroke-dasharray:none;stroke-opacity:1"
         id="path4350"
         inkscape:connector-curvature="0" />
      <path
         d="m 351.37447,218.3965 q -0.71347,0 -1.03056,-0.31709 -0.3171,-0.3171 -0.3171,-1.29482 0,-0.97772 0.18497,-1.63834 0.18498,-0.92486 0.29067,-1.87616 0.1057,-0.97771 0.29068,-3.01242 0.18497,-2.06114 0.42279,-4.2544 l 0.3171,-2.85387 q -0.84559,0.0528 -2.37823,0.31709 -1.50621,0.23783 -2.00828,0.23783 -0.97772,0 -0.97772,-0.6342 0,-0.84559 1.05699,-1.26839 1.08342,-0.42279 2.61605,-0.63419 1.55907,-0.23783 1.98186,-0.44922 0.2114,-0.18498 0.44923,-1.13627 0.21139,-0.95129 0.29067,-2.48393 0.0793,-1.53264 0.34352,-2.7746 0.18497,-0.8456 0.71347,-1.24197 0.55492,-0.4228 1.08342,-0.4228 0.71347,0 0.71347,0.6342 0,0.58134 -0.3171,3.46165 -0.29067,2.85387 -0.3171,3.35595 0.23782,-0.0264 1.45336,-0.2114 1.24197,-0.2114 1.87617,-0.2114 1.47978,0 1.47978,0.79274 0,1.21554 -3.56734,1.77046 l -1.53264,0.23783 -0.66062,4.01657 q -0.60777,3.75232 -0.76632,7.02899 -0.15855,3.25025 -0.23782,3.69947 -0.23783,1.16269 -1.45337,1.16269 z"
         id="path4352"
         style="stroke:none;stroke-width:0.5;stroke-miterlimit:4;stroke-dasharray:none;stroke-opacity:1"
         inkscape:connector-curvature="0" />
      <path
         d="m 360.31778,201.37894 q 0,-0.18498 0.0793,-0.55493 0.1057,-0.36994 0.29067,-0.87201 0.2114,-0.50207 0.6342,-0.8456 0.44922,-0.36994 1.00414,-0.36994 0.71347,0 1.87616,0.18497 1.18912,0.18497 1.37409,0.29067 0.15855,0.18498 0.15855,0.39637 0,0.44923 -0.39637,1.24197 -0.36995,0.76632 -0.79275,1.16269 -0.29067,0.29067 -0.87201,1.71761 -0.55493,1.42694 -0.7399,1.69119 -0.36995,0.55492 -1.03057,0.55492 -0.66062,0 -1.13626,-0.60777 -0.44922,-0.6342 -0.44922,-1.61191 0,-0.3171 0.0528,-0.76632 0.0793,-0.47565 0.0793,-0.79275 0,-0.26424 -0.0793,-0.47564 -0.0528,-0.2114 -0.0528,-0.34352 z"
         style="stroke:none;stroke-width:0.5;stroke-miterlimit:4;stroke-dasharray:none;stroke-opacity:1"
         id="path4354"
         inkscape:connector-curvature="0" />
      <path
         d="m 363.086,216.28252 q 0,-0.68704 0.36994,-1.10984 0.36995,-0.44922 0.7399,-0.44922 0.66062,0 0.97772,0.92486 0.18497,0.55493 1.03056,1.057 0.87202,0.47564 1.71762,0.47564 1.08341,0 2.27253,-1.26839 1.18911,-1.26839 1.18911,-1.79688 0,-0.89845 -1.13626,-1.26839 -0.8456,-0.26425 -1.82331,-0.66062 -0.9513,-0.4228 -1.42694,-0.5285 -0.68705,-0.15855 -1.71761,-0.97772 -1.03057,-0.84559 -1.03057,-1.82331 0,-1.13626 1.95543,-2.90672 1.98186,-1.79689 4.33367,-2.27254 l 2.69533,-0.23782 q 0.71347,0 1.03057,0.18497 0.34352,0.15855 0.76631,0.79275 0.58135,0.84559 0.58135,1.40051 0,0.29067 -0.2114,0.5285 -0.2114,0.23782 -0.60777,0.23782 -0.42279,0 -0.68704,-0.18497 -0.23783,-0.2114 -0.36995,-0.4228 -0.1057,-0.23782 -0.44922,-0.4228 -0.3171,-0.2114 -0.87202,-0.2114 -1.16269,0 -2.61605,0.68705 -1.45337,0.66062 -2.37824,1.42694 -0.89844,0.73989 -0.89844,1.05699 0,0.34352 0.66062,0.84559 0.68705,0.47565 2.00829,0.89845 2.27253,0.73989 3.1974,1.40051 0.95129,0.66062 0.95129,1.71761 0,0.58135 -0.3171,1.50622 -0.3171,0.89844 -0.68704,1.45336 -0.55492,0.87202 -1.84974,1.79689 -1.26839,0.95129 -2.40466,0.95129 -0.81916,0 -2.08755,-0.23782 -1.2684,-0.2114 -1.90259,-0.5285 -0.4228,-0.23782 -0.71347,-0.81917 -0.29067,-0.58134 -0.29067,-1.21554 z"
         style="stroke:none;stroke-width:0.5;stroke-miterlimit:4;stroke-dasharray:none;stroke-opacity:1"
         id="path4356"
         inkscape:connector-curvature="0" />
      <path
         d="m 398.4037,202.64733 q 0.95129,0 1.47979,1.05699 0.52849,1.03056 0.52849,2.11398 0,2.11398 -1.53264,9.01086 -0.36994,1.74403 -0.73989,2.37823 -0.36995,0.60777 -1.10984,0.60777 -0.6342,0 -0.6342,-0.55492 0,-0.1057 0.92487,-4.30724 0.95129,-4.22797 0.95129,-6.3948 0,-0.47565 -0.15855,-0.79275 -0.15854,-0.34352 -0.29067,-0.4228 -0.1057,-0.10569 -0.15855,-0.10569 -0.42279,0 -2.11398,1.77046 -1.69119,1.77046 -2.95958,3.62019 -1.34766,1.95544 -1.84973,2.85388 -0.47565,0.89844 -0.97772,2.43108 -0.60777,1.79689 -0.84559,2.32538 -0.23783,0.55493 -0.55493,0.55493 -0.10569,0 -0.23782,-0.0793 -0.13212,-0.0529 -0.3171,-0.2114 -0.15854,-0.15855 -0.29067,-0.47564 -0.1057,-0.3171 -0.1057,-0.7399 0,-0.55492 0.15855,-1.66476 0.15855,-1.13627 0.47565,-3.35595 0.31709,-2.21968 0.55492,-4.62434 0.34352,-3.4088 0.58134,-4.14869 0.36995,-1.08342 1.08342,-1.08342 0.34352,0 0.47565,0.23783 0.15855,0.21139 0.15855,0.84559 0,0.63419 -0.39638,4.59791 l -0.29067,3.01243 0.47565,-0.87202 q 0.92486,-1.69118 1.50621,-2.48393 0.58135,-0.79274 2.00828,-2.27253 2.74818,-2.82745 4.20155,-2.82745 z"
         style="stroke:none;stroke-width:0.5;stroke-miterlimit:4;stroke-dasharray:none;stroke-opacity:1"
         id="path4358"
         inkscape:connector-curvature="0" />
      <path
         d="m 413.79052,202.56805 q 2.45751,0 3.35595,0.81917 0.92487,0.79274 0.92487,2.40466 0,2.7746 -2.08756,6.34195 -2.08756,3.56734 -4.75646,4.88858 -2.21968,1.08342 -4.38652,1.08342 -1.47979,0 -2.69533,-0.50207 -1.18911,-0.47565 -1.82331,-1.40051 -1.10984,-1.58549 -1.10984,-2.95958 0,-0.76632 0.23782,-1.90259 0.68705,-3.27667 3.9373,-5.6549 2.64248,-1.90259 4.33367,-2.51036 1.69118,-0.60777 4.06941,-0.60777 z m 2.03471,3.80517 q 0,-0.50207 -0.71347,-0.89844 -0.71347,-0.4228 -1.47978,-0.4228 -0.15855,0 -0.44923,0.0529 -0.26424,0.0264 -0.84559,0.1057 -0.55492,0.0529 -1.18912,0.1057 -0.89844,0.0793 -1.50621,0.34352 -0.60777,0.23783 -1.58549,0.95129 -2.00828,1.45337 -3.03885,2.85388 -1.03056,1.37409 -1.03056,3.03885 0,1.53264 1.08341,2.48394 1.08342,0.92486 2.93315,0.92486 2.16684,0 4.57149,-2.74818 2.43108,-2.7746 3.17098,-6.2891 0.0793,-0.31709 0.0793,-0.50207 z"
         style="stroke:none;stroke-width:0.5;stroke-miterlimit:4;stroke-dasharray:none;stroke-opacity:1"
         id="path4360"
         inkscape:connector-curvature="0" />
      <path
         d="m 423.9664,218.3965 q -0.71347,0 -1.03057,-0.31709 -0.3171,-0.3171 -0.3171,-1.29482 0,-0.97772 0.18497,-1.63834 0.18498,-0.92486 0.29068,-1.87616 0.1057,-0.97771 0.29067,-3.01242 0.18497,-2.06114 0.4228,-4.2544 l 0.31709,-2.85387 q -0.84559,0.0528 -2.37823,0.31709 -1.50621,0.23783 -2.00828,0.23783 -0.97772,0 -0.97772,-0.6342 0,-0.84559 1.05699,-1.26839 1.08342,-0.42279 2.61606,-0.63419 1.55906,-0.23783 1.98186,-0.44922 0.2114,-0.18498 0.44922,-1.13627 0.2114,-0.95129 0.29067,-2.48393 0.0793,-1.53264 0.34352,-2.7746 0.18498,-0.8456 0.71347,-1.24197 0.55492,-0.4228 1.08342,-0.4228 0.71347,0 0.71347,0.6342 0,0.58134 -0.3171,3.46165 -0.29067,2.85387 -0.3171,3.35595 0.23783,-0.0264 1.45337,-0.2114 1.24196,-0.2114 1.87616,-0.2114 1.47979,0 1.47979,0.79274 0,1.21554 -3.56735,1.77046 l -1.53264,0.23783 -0.66062,4.01657 q -0.60777,3.75232 -0.76632,7.02899 -0.15855,3.25025 -0.23782,3.69947 -0.23782,1.16269 -1.45336,1.16269 z"
         style="stroke:none;stroke-width:0.5;stroke-miterlimit:4;stroke-dasharray:none;stroke-opacity:1"
         id="path4362"
         inkscape:connector-curvature="0" />
      <path
         d="m 442.31338,207.27166 q 0.1057,-0.13212 0.1057,-0.23782 0,-0.1057 -0.13213,-0.26425 -0.13212,-0.15855 -0.47564,-0.47564 l -0.3171,-0.3171 q -0.68705,-0.6342 -1.03057,-0.79274 -0.34352,-0.15855 -1.00414,-0.15855 -1.32124,0 -1.98186,0.2114 -0.66062,0.18497 -1.47979,0.84559 -2.48393,2.00828 -2.61605,2.5632 0.10569,0.0264 0.44922,0.0264 2.5632,0 7.29324,-0.89844 0.47565,-0.0793 0.79274,-0.23783 0.3171,-0.15855 0.39638,-0.26425 z m 1.18911,4.67719 q 1.03057,-0.71347 1.42694,-0.71347 0.39637,0 0.39637,0.39638 0,0.52849 -1.00414,1.71761 -0.97772,1.16269 -2.08756,1.98186 -3.48807,2.53678 -6.63262,2.53678 -2.19326,0 -3.77875,-1.47979 -1.58549,-1.50621 -1.58549,-4.17512 0,-2.21968 0.92487,-3.91087 0.92487,-1.63834 3.22383,-3.4088 2.29896,-1.79688 4.06942,-1.79688 0.44922,0 1.37409,0.0793 1.40051,0.1057 1.95543,0.29067 0.55492,0.15855 1.21554,0.66062 0.6342,0.50208 1.08342,1.34767 0.47564,0.84559 0.47564,1.61191 0,0.55492 -0.26424,1.00414 -0.26425,0.4228 -0.60777,0.68705 -0.34353,0.26425 -0.97772,0.50207 -0.6342,0.2114 -1.10984,0.3171 -0.44922,0.1057 -1.18912,0.23782 -2.6689,0.50207 -5.41708,0.66062 l -2.32538,0.1057 -0.13213,0.68704 q -0.1057,0.58135 -0.1057,0.79275 0,1.24196 1.24197,2.48393 1.13626,1.16269 2.61605,1.16269 1.16269,0 2.61606,-0.68705 1.45336,-0.71346 2.51035,-1.55906 1.08342,-0.84559 2.08756,-1.53264 z"
         style="stroke:none;stroke-width:0.5;stroke-miterlimit:4;stroke-dasharray:none;stroke-opacity:1"
         id="path4364"
         inkscape:connector-curvature="0" />
      <path
         d="m 462.90341,202.22453 q 0.47565,0 0.58135,0.29067 0.13212,0.26425 0.13212,0.8456 0,2.08755 -0.95129,7.55749 -0.92487,5.46993 -1.37409,6.05127 -0.60777,0.4228 -1.21554,0.4228 -0.39637,0 -0.66062,-0.13212 -0.23782,-0.13213 -0.3171,-0.23783 -0.0528,-0.13212 -0.0528,-0.21139 0,-0.66062 0.76632,-5.65491 0.79274,-4.99429 1.16269,-6.63262 0.34352,-1.58549 0.97772,-1.98186 0.5285,-0.3171 0.95129,-0.3171 z m 0.0264,-5.46993 q 0,-0.66062 0.52849,-1.08342 0.5285,-0.44922 0.9513,-0.44922 0.34352,0 0.81916,0.3171 0.47565,0.29067 0.47565,0.76631 0,0.50208 -0.44922,1.1627 -0.44922,0.66062 -1.08342,0.66062 -0.47564,0 -0.87202,-0.36995 -0.36994,-0.39637 -0.36994,-1.00414 z"
         style="stroke:none;stroke-width:0.5;stroke-miterlimit:4;stroke-dasharray:none;stroke-opacity:1"
         id="path4366"
         inkscape:connector-curvature="0" />
      <path
         d="m 471.76142,218.3965 q -0.71347,0 -1.03056,-0.31709 -0.3171,-0.3171 -0.3171,-1.29482 0,-0.97772 0.18497,-1.63834 0.18498,-0.92486 0.29068,-1.87616 0.10569,-0.97771 0.29067,-3.01242 0.18497,-2.06114 0.4228,-4.2544 l 0.31709,-2.85387 q -0.84559,0.0528 -2.37823,0.31709 -1.50621,0.23783 -2.00828,0.23783 -0.97772,0 -0.97772,-0.6342 0,-0.84559 1.05699,-1.26839 1.08342,-0.42279 2.61606,-0.63419 1.55906,-0.23783 1.98186,-0.44922 0.21139,-0.18498 0.44922,-1.13627 0.2114,-0.95129 0.29067,-2.48393 0.0793,-1.53264 0.34352,-2.7746 0.18498,-0.8456 0.71347,-1.24197 0.55492,-0.4228 1.08342,-0.4228 0.71347,0 0.71347,0.6342 0,0.58134 -0.3171,3.46165 -0.29067,2.85387 -0.3171,3.35595 0.23783,-0.0264 1.45337,-0.2114 1.24196,-0.2114 1.87616,-0.2114 1.47979,0 1.47979,0.79274 0,1.21554 -3.56735,1.77046 l -1.53264,0.23783 -0.66062,4.01657 q -0.60777,3.75232 -0.76632,7.02899 -0.15855,3.25025 -0.23782,3.69947 -0.23783,1.16269 -1.45337,1.16269 z"
         style="stroke:none;stroke-width:0.5;stroke-miterlimit:4;stroke-dasharray:none;stroke-opacity:1"
         id="path4368"
         inkscape:connector-curvature="0" />
      <path
         d="m 482.9008,204.76131 q 0.1057,-0.34352 0.1057,-0.44922 0,-0.1057 -0.0793,-0.23783 -0.0793,-0.13212 -0.0793,-0.29067 0,-0.0529 0.0528,-0.3171 l 0,-0.0793 q 0.15855,-0.71347 1.03056,-0.71347 0.2114,0 0.89845,0.1057 0.68704,0.0793 1.10984,0.1057 l 1.24196,0.15855 -0.36994,1.29481 q -0.23783,0.76632 -1.29482,2.85388 -1.05699,2.06113 -1.77046,3.8316 -0.39637,1.00414 -1.03057,1.00414 -0.60777,0 -0.60777,-0.97772 l 0.66062,-5.81345 q 0.0264,-0.13213 0.13213,-0.47565 z m 1.00414,10.27924 q 0,0.79275 -0.68704,1.82332 -0.66062,1.03056 -1.34767,1.03056 -0.29067,0 -0.63419,-0.23782 -0.3171,-0.2114 -0.39638,-0.2114 -0.0793,0 -0.13212,0.0529 -0.36995,-0.0529 -0.60777,-0.34352 -0.23782,-0.3171 -0.23782,-0.68705 0,-0.52849 0.63419,-1.29481 0.6342,-0.79275 1.16269,-1.03057 0.29068,-0.13212 0.79275,-0.13212 1.45336,0 1.45336,1.03056 z"
         style="stroke:none;stroke-width:0.5;stroke-miterlimit:4;stroke-dasharray:none;stroke-opacity:1"
         id="path4370"
         inkscape:connector-curvature="0" />
    </g>
  </g>
  <g
     inkscape:groupmode="layer"
     id="layer3"
     inkscape:label="side screen"
     sodipodi:insensitive="true">
    <rect
       transform="translate(0,-702.36216)"
       style="opacity:1;fill:#ffffff;fill-opacity:1;stroke:none;stroke-width:2;stroke-linecap:square;stroke-linejoin:miter;stroke-miterlimit:4;stroke-dasharray:none;stroke-opacity:1"
       id="rect4201"
       width="180"
       height="493"
       x="-180"
       y="626.55457"
       ry="4.07268" />
  </g>
</svg>
