<?xml version="1.0" encoding="UTF-8" standalone="no"?>
<!-- Created with Inkscape (http://www.inkscape.org/) -->

<svg
   xmlns:dc="http://purl.org/dc/elements/1.1/"
   xmlns:cc="http://creativecommons.org/ns#"
   xmlns:rdf="http://www.w3.org/1999/02/22-rdf-syntax-ns#"
   xmlns:svg="http://www.w3.org/2000/svg"
   xmlns="http://www.w3.org/2000/svg"
   xmlns:xlink="http://www.w3.org/1999/xlink"
   xmlns:sodipodi="http://sodipodi.sourceforge.net/DTD/sodipodi-0.dtd"
   xmlns:inkscape="http://www.inkscape.org/namespaces/inkscape"
   width="1024"
   height="1024"
   viewBox="0 0 1024 1024"
   id="svg4277"
   version="1.1"
   inkscape:version="0.91 r13725"
   sodipodi:docname="main1.svg">
  <defs
     id="defs4279">
    <linearGradient
       inkscape:collect="always"
       id="linearGradient4914">
      <stop
         style="stop-color:#1b0800;stop-opacity:0.54509807"
         offset="0"
         id="stop4916" />
      <stop
         style="stop-color:#1b0800;stop-opacity:0;"
         offset="1"
         id="stop4918" />
    </linearGradient>
    <linearGradient
       inkscape:collect="always"
       xlink:href="#linearGradient4914"
       id="linearGradient4920"
       x1="658.92084"
       y1="228.28609"
       x2="795.60425"
       y2="189.00037"
       gradientUnits="userSpaceOnUse"
       gradientTransform="matrix(1.0202941,0,0,1.0202941,-8.382068,-4.828024)" />
    <linearGradient
       inkscape:collect="always"
       xlink:href="#linearGradient4914"
       id="linearGradient4930"
       x1="93.79921"
       y1="789.58228"
       x2="162.16568"
       y2="849.68634"
       gradientUnits="userSpaceOnUse"
       gradientTransform="matrix(1.0202941,0,0,1.0202941,-8.382068,-4.828024)" />
  </defs>
  <sodipodi:namedview
     id="base"
     pagecolor="#ffffff"
     bordercolor="#666666"
     borderopacity="1.0"
     inkscape:pageopacity="0.0"
     inkscape:pageshadow="2"
     inkscape:zoom="0.35"
     inkscape:cx="639.0531"
     inkscape:cy="545.30967"
     inkscape:document-units="px"
     inkscape:current-layer="layer3"
     showgrid="false"
     inkscape:window-width="1920"
     inkscape:window-height="1130"
     inkscape:window-x="0"
     inkscape:window-y="0"
     inkscape:window-maximized="1"
     units="px" />
  <metadata
     id="metadata4282">
    <rdf:RDF>
      <cc:Work
         rdf:about="">
        <dc:format>image/svg+xml</dc:format>
        <dc:type
           rdf:resource="http://purl.org/dc/dcmitype/StillImage" />
        <dc:title></dc:title>
      </cc:Work>
    </rdf:RDF>
  </metadata>
  <g
     inkscape:groupmode="layer"
     id="layer3"
     inkscape:label="Layer 2"
     style="display:inline"
     transform="translate(0,-28.362126)">
    <path
       style="fill:#3a2727;fill-opacity:0.59210528;fill-rule:evenodd;stroke:none;stroke-width:1px;stroke-linecap:butt;stroke-linejoin:miter;stroke-opacity:1"
       d="M 702.90867,973.78485 C 765.87343,918.33915 808.06628,850.13881 855.224,785.39484 908.85964,706.97032 966.31366,710.74388 995.51447,565.30283 1017.6237,455.18272 985.25626,359.10784 841.23916,306.07007 c 3.07141,-71.98976 -19.57949,-143.82143 -59.2577,-214.83961 45.9977,57.17804 68.27829,131.83334 70.55112,209.41631 125.49939,52.20201 174.96112,130.59251 154.46932,264.79676 -7.12349,46.65329 -15.50073,90.06066 -47.27624,127.33454 -43.52935,51.06159 -64.21885,51.17605 -104.84069,109.99219 -41.46861,60.04218 -89.75932,126.0297 -151.9763,171.01459 z"
       id="path4948"
       inkscape:connector-curvature="0"
       sodipodi:nodetypes="ccscccsssc" />
    <path
       style="fill:#f1eee5;fill-opacity:1;fill-rule:evenodd;stroke:#404040;stroke-width:2.99999976;stroke-linecap:butt;stroke-linejoin:miter;stroke-miterlimit:4;stroke-dasharray:none;stroke-opacity:1"
       d="M 174.72075,652.46713 C 97.376129,674.34653 -43.889627,811.02084 36.130979,900.29707 81.140585,950.51275 212.45893,908.38372 257.8893,881.48249"
       id="path4847"
       inkscape:connector-curvature="0"
       sodipodi:nodetypes="csc" />
    <path
       style="fill:#f1eee5;fill-opacity:1;fill-rule:evenodd;stroke:#404040;stroke-width:4.99999952;stroke-linecap:butt;stroke-linejoin:miter;stroke-miterlimit:4;stroke-dasharray:none;stroke-opacity:1"
       d="M 684.38963,40.831848 C 668.59539,43.750836 651.64766,51.629056 633.56486,65.640295 561.50311,121.47634 545.96313,187.64616 548.79534,273.8182 l -0.028,0.67943 c -79.42558,2.42569 -159.64767,27.09515 -231.62819,88.74242 -165.74272,141.94932 -174.36295,406.56713 -84.7011,508.9208 -1.89878,97.94998 111.83556,178.35875 214.44188,152.06675 36.65893,-10.798 73.08396,2.7026 112.27336,5.6289 99.18185,-0.3393 189.85989,-78.13536 299.55368,-249.25515 C 891.48134,729.47412 967.81834,704.71972 987.44463,607.68701 1016.5901,463.59135 1004.6678,377.10871 841.19989,305.7979 849.04657,242.95992 794.94931,20.398942 684.38963,40.831848 Z"
       id="path4880"
       inkscape:connector-curvature="0"
       sodipodi:nodetypes="ssccscccsscs" />
    <path
       style="fill:#1b0800;fill-opacity:0.54605264;fill-rule:evenodd;stroke:none;stroke-width:1px;stroke-linecap:butt;stroke-linejoin:miter;stroke-opacity:1"
       d="M 737.64268,781.73662 C 826.10205,734.80207 923.64602,652.56911 913.93663,573.26721 844.19893,531.25099 722.36114,457.42553 607.6123,475.24648 c -74.28628,11.53694 -96.78777,74.27324 -102.15516,105.85814 -4.67631,27.51819 3.23758,53.35145 -8.45698,71.63458 -23.03088,-29.93801 -50.99109,-59.15781 -91.45333,-86.55854 7.75766,-19.78543 33.18143,-27.30642 40.13799,-43.83675 37.70899,-89.60489 125.60161,-115.36853 207.06881,-120.40052 85.47467,-21.12998 175.66499,-15.4612 275.23116,-3.12772 -94.12616,-61.80891 -267.69841,-147.71945 -435.3261,-118.72083 -60.63131,10.48878 -120.4847,36.0111 -175.51953,83.14533 -165.74273,141.94929 -171.81225,405.83824 -81.97532,508.16286 -1.96392,-92.44967 -15.73005,-186.93753 101.59559,-256.83326 9.51998,57.65093 27.63796,96.32479 48.75806,128.37652 -25.10305,-23.68279 -124.33819,-16.28416 -113.23909,81.39706 7.32022,64.4241 24.52694,61.48683 36.03097,112.99182 12.7293,56.99069 72.49019,74.77803 105.97549,61.09624 13.98847,14.11909 20.28221,16.36749 33.82833,24.44939 143.39102,30.9974 267.1461,-112.26499 289.52949,-241.14418 z"
       id="path4885"
       inkscape:connector-curvature="0"
       sodipodi:nodetypes="ccssccsccsscccssccc" />
    <path
       style="fill:#ffffff;fill-opacity:1;fill-rule:evenodd;stroke:none;stroke-width:0.99999994px;stroke-linecap:butt;stroke-linejoin:miter;stroke-opacity:1"
       d="m 443.99518,941.74051 c -14.52036,-161.60802 -82.21401,-32.4128 -56.55035,19.32331 23.42475,52.51748 83.31792,82.99268 135.66641,74.67408 C 672.12157,1012.0588 738.83848,883.94239 737.90012,781.65085 652.3629,699.26868 492.3325,728.79006 540.12038,862.32944 Z"
       id="path4839"
       inkscape:connector-curvature="0"
       sodipodi:nodetypes="ccsccc" />
    <path
       style="fill:#320f00;fill-opacity:1;fill-rule:evenodd;stroke:none;stroke-width:1px;stroke-linecap:butt;stroke-linejoin:miter;stroke-opacity:1"
       d="m 444.1473,937.86516 c -5.16656,29.66581 13.94051,53.63676 28.95017,65.42924 39.98034,31.4108 115.63681,-26.55068 121.4961,-49.23514 13.18318,-51.03884 -15.80459,-89.11742 -55.70856,-91.41246 -42.75568,17.78584 -79.59043,48.1717 -94.73771,75.21836 z"
       id="path4837"
       inkscape:connector-curvature="0"
       sodipodi:nodetypes="csscc" />
    <path
       style="fill:#222635;fill-opacity:1;fill-rule:evenodd;stroke:none;stroke-width:1px;stroke-linecap:butt;stroke-linejoin:miter;stroke-opacity:1"
       d="m 576.797,667.725 c -16.51165,4.31185 -24.81935,-4.24737 -38.40474,-39.38585 -26.70167,-69.0637 73.79964,-166.02617 127.85326,-82.28686 45.18897,70.00625 -37.18654,108.0249 -89.44852,121.67271 z"
       id="path4849"
       inkscape:connector-curvature="0"
       sodipodi:nodetypes="ssss" />
    <path
       style="fill:#222635;fill-opacity:1;fill-rule:evenodd;stroke:none;stroke-width:1px;stroke-linecap:butt;stroke-linejoin:miter;stroke-opacity:1"
       d="m 392.12394,809.53617 c -24.62286,34.31145 -72.39088,73.38648 -93.77937,36.11667 -21.67962,-37.77699 6.36836,-72.93789 30.42421,-82.79086 54.98197,-22.51953 57.98192,19.50996 63.35516,46.67419 z"
       id="path4851"
       inkscape:connector-curvature="0"
       sodipodi:nodetypes="cssc" />
    <ellipse
       style="opacity:1;fill:#ffffff;fill-opacity:0.67763156;fill-rule:nonzero;stroke:none;stroke-width:1;stroke-linecap:butt;stroke-linejoin:round;stroke-miterlimit:4;stroke-dasharray:none;stroke-dashoffset:0;stroke-opacity:1"
       id="path4874"
       cx="40.160725"
       cy="830.41992"
       rx="23.22596"
       ry="26.393299"
       transform="matrix(0.70118641,-0.71297799,0.71297652,0.70118791,0,0)" />
    <ellipse
       ry="15.828861"
       rx="12.242631"
       cy="768.38068"
       cx="-359.52557"
       id="ellipse4876"
       style="opacity:1;fill:#ffffff;fill-opacity:0.71710528;fill-rule:nonzero;stroke:none;stroke-width:1;stroke-linecap:butt;stroke-linejoin:round;stroke-miterlimit:4;stroke-dasharray:none;stroke-dashoffset:0;stroke-opacity:1"
       transform="matrix(0.62207787,-0.78295538,0.75471128,0.65605707,0,0)" />
    <path
       style="color:#000000;font-style:normal;font-variant:normal;font-weight:normal;font-stretch:normal;font-size:medium;line-height:normal;font-family:sans-serif;text-indent:0;text-align:start;text-decoration:none;text-decoration-line:none;text-decoration-style:solid;text-decoration-color:#000000;letter-spacing:normal;word-spacing:normal;text-transform:none;direction:ltr;block-progression:tb;writing-mode:lr-tb;baseline-shift:baseline;text-anchor:start;white-space:normal;clip-rule:nonzero;display:inline;overflow:visible;visibility:visible;opacity:1;isolation:auto;mix-blend-mode:normal;color-interpolation:sRGB;color-interpolation-filters:linearRGB;solid-color:#000000;solid-opacity:1;fill:#404040;fill-opacity:1;fill-rule:evenodd;stroke:none;stroke-width:5;stroke-linecap:butt;stroke-linejoin:miter;stroke-miterlimit:4;stroke-dasharray:none;stroke-dashoffset:0;stroke-opacity:1;color-rendering:auto;image-rendering:auto;shape-rendering:auto;text-rendering:auto;enable-background:accumulate"
       d="m 384.9786,955.86669 c 28.39103,88.05581 115.97124,88.53631 141.04593,85.51641 119.70055,-17.7471 218.02598,-108.16852 211.93413,-259.35216 -4.04291,135.34371 -90.74743,233.63776 -212.84398,253.69286 -38.69452,5.0477 -108.04323,-6.3209 -140.13608,-79.85711 z"
       id="path4890"
       inkscape:connector-curvature="0"
       sodipodi:nodetypes="ccccc" />
    <path
       style="fill:#3a2727;fill-opacity:0.59215686;fill-rule:evenodd;stroke:none;stroke-width:1px;stroke-linecap:butt;stroke-linejoin:miter;stroke-opacity:1"
       d="M 188.95824,778.35351 C 169.58125,672.47181 185.5149,508.20076 296.04697,396.38997 374.5815,316.94688 463.70905,289.53312 547.16021,286.51303 700.54192,280.96215 834.58202,347.42287 926.51894,398.37543 831.74337,331.13432 681.69162,271.11997 550.61818,274.25763 545.50567,191.38119 564.00236,78.948591 695.94021,36.905639 642.30038,35.48409 528.46292,123.97936 538.75049,272.40533 445.49832,281.29357 350.51028,316.52165 278.77595,397.24378 212.02574,472.35731 179.8158,558.49708 175.24311,642.02928 125.17001,657.79988 28.325049,727.04163 11.772228,825.68424 36.402902,727.27859 138.10099,660.81919 175.40889,652.58721 c -0.81406,43.5177 4.34846,85.9959 13.54935,125.7663 z"
       id="path4902"
       inkscape:connector-curvature="0"
       sodipodi:nodetypes="cssccccscccc" />
    <path
       style="fill:url(#linearGradient4920);fill-opacity:1;fill-rule:evenodd;stroke:none;stroke-width:1px;stroke-linecap:butt;stroke-linejoin:miter;stroke-opacity:1"
       d="M 640.70458,281.35402 C 622.23605,252.02163 594.79927,174.87428 642.4198,116.37342 736.81666,0.4087785 828.58589,228.98623 804.93808,330.99958 773.74327,315.84723 689.886,287.51719 640.70458,281.35402 Z"
       id="path4904"
       inkscape:connector-curvature="0"
       sodipodi:nodetypes="cscc" />
    <path
       style="fill:url(#linearGradient4930);fill-opacity:1;fill-rule:evenodd;stroke:none;stroke-width:1px;stroke-linecap:butt;stroke-linejoin:miter;stroke-opacity:1"
       d="M 173.44892,700.85618 C 108.31332,724.31773 16.381258,827.94819 79.800493,885.2379 111.0109,913.43179 170.53379,879.41285 205.5153,836.04516 185.02799,796.41206 175.85307,750.80504 173.44892,700.85618 Z"
       id="path4922"
       inkscape:connector-curvature="0"
       sodipodi:nodetypes="cscc" />
    <path
       style="fill:#c3c3c3;fill-opacity:0.54509804;fill-rule:evenodd;stroke:none;stroke-width:1px;stroke-linecap:butt;stroke-linejoin:miter;stroke-opacity:1"
       d="m 563.11484,542.22732 c -21.22534,26.54195 -35.31898,62.28297 -12.62549,103.83826 5.13864,9.40965 10.87226,21.99632 28.08528,17.52109 28.46857,-7.40155 52.36737,-19.96186 76.26829,-36.84583 -67.21405,45.85268 -129.99254,-20.25892 -91.72808,-84.51352 z"
       id="path4932"
       inkscape:connector-curvature="0"
       sodipodi:nodetypes="csscc" />
    <path
       sodipodi:nodetypes="ssccs"
       inkscape:connector-curvature="0"
       id="path4934"
       d="m 299.24193,839.73926 c 4.85536,9.5589 10.91466,22.15635 28.08528,17.5211 8.78897,-2.37261 15.52926,-4.78641 25.59982,-12.38213 -27.64993,-4.58557 -47.56677,-28.05582 -48.47043,-57.12081 -6.04168,8.24179 -17.29783,28.19341 -5.21467,51.98184 z"
       style="fill:#c3c3c3;fill-opacity:0.54509804;fill-rule:evenodd;stroke:none;stroke-width:1px;stroke-linecap:butt;stroke-linejoin:miter;stroke-opacity:1" />
    <ellipse
       style="opacity:1;fill:#838383;fill-opacity:0.59210528;fill-rule:nonzero;stroke:none;stroke-width:3;stroke-linecap:butt;stroke-linejoin:round;stroke-miterlimit:4;stroke-dasharray:none;stroke-dashoffset:0;stroke-opacity:1"
       id="path4936"
       cx="107.42638"
       cy="1060.5787"
       rx="6.5590339"
       ry="9.4741592"
       transform="matrix(0.8616804,-0.50745137,0.50745137,0.8616804,0,0)" />
    <ellipse
       transform="matrix(0.92206988,-0.38702343,0.32503549,0.94570182,0,0)"
       ry="8.4430981"
       rx="5.4249148"
       cy="1047.7056"
       cx="365.51358"
       id="ellipse4938"
       style="opacity:1;fill:#838383;fill-opacity:0.59210528;fill-rule:nonzero;stroke:none;stroke-width:3;stroke-linecap:butt;stroke-linejoin:round;stroke-miterlimit:4;stroke-dasharray:none;stroke-dashoffset:0;stroke-opacity:1" />
    <ellipse
       transform="matrix(0.64378574,-0.7652058,0.67691117,0.73606472,0,0)"
       ry="8.0947018"
       rx="5.6359105"
       cy="1033.4045"
       cx="-77.096397"
       id="ellipse4940"
       style="opacity:1;fill:#838383;fill-opacity:0.59210528;fill-rule:nonzero;stroke:none;stroke-width:3;stroke-linecap:butt;stroke-linejoin:round;stroke-miterlimit:4;stroke-dasharray:none;stroke-dashoffset:0;stroke-opacity:1" />
    <ellipse
       style="opacity:1;fill:#838383;fill-opacity:0.59210528;fill-rule:nonzero;stroke:none;stroke-width:3;stroke-linecap:butt;stroke-linejoin:round;stroke-miterlimit:4;stroke-dasharray:none;stroke-dashoffset:0;stroke-opacity:1"
       id="ellipse4942"
       cx="94.696404"
       cy="1051.7255"
       rx="5.7494116"
       ry="8.3819752"
       transform="matrix(0.79404885,-0.60785395,0.5833467,0.81222326,0,0)"
       inkscape:transform-center-x="0.98691966"
       inkscape:transform-center-y="0.15625543" />
    <ellipse
       style="opacity:1;fill:#838383;fill-opacity:0.59210528;fill-rule:nonzero;stroke:none;stroke-width:3;stroke-linecap:butt;stroke-linejoin:round;stroke-miterlimit:4;stroke-dasharray:none;stroke-dashoffset:0;stroke-opacity:1"
       id="ellipse4944"
       cx="-533.73517"
       cy="836.65015"
       rx="5.9034128"
       ry="7.9541044"
       transform="matrix(0.27086812,-0.96261647,0.94881546,0.31583101,0,0)" />
    <ellipse
       style="opacity:1;fill:#838383;fill-opacity:0.59210528;fill-rule:nonzero;stroke:none;stroke-width:3;stroke-linecap:butt;stroke-linejoin:round;stroke-miterlimit:4;stroke-dasharray:none;stroke-dashoffset:0;stroke-opacity:1"
       id="ellipse4946"
       cx="519.94757"
       cy="986.91333"
       rx="5.4186511"
       ry="8.2992954"
       transform="matrix(0.98885177,-0.14890322,0.13211758,0.99123405,0,0)" />
  </g>
</svg>
