<?xml version="1.0" encoding="UTF-8" standalone="no"?>
<svg
   xmlns:dc="http://purl.org/dc/elements/1.1/"
   xmlns:cc="http://creativecommons.org/ns#"
   xmlns:rdf="http://www.w3.org/1999/02/22-rdf-syntax-ns#"
   xmlns:svg="http://www.w3.org/2000/svg"
   xmlns="http://www.w3.org/2000/svg"
   xmlns:xlink="http://www.w3.org/1999/xlink"
   version="1.1"
   viewBox="0 0 1024 1024"
   id="svg4333">
  <metadata
     id="metadata4400">
    <rdf:RDF>
      <cc:Work
         rdf:about="">
        <dc:format>image/svg+xml</dc:format>
        <dc:type
           rdf:resource="http://purl.org/dc/dcmitype/StillImage" />
        <dc:title></dc:title>
      </cc:Work>
    </rdf:RDF>
  </metadata>
  <defs
     id="defs4335">
    <linearGradient
       id="a">
      <stop
         stop-color="#1b0800"
         stop-opacity=".54510"
         offset="0"
         id="stop4338" />
      <stop
         stop-color="#1b0800"
         stop-opacity="0"
         offset="1"
         id="stop4340" />
    </linearGradient>
    <linearGradient
       id="c"
       y2="189"
       xlink:href="#a"
       gradientUnits="userSpaceOnUse"
       x2="795.6"
       gradientTransform="matrix(1.0203,0,0,1.0203,-8.3821,-4.828)"
       y1="228.29"
       x1="658.92" />
    <linearGradient
       id="b"
       y2="849.69"
       xlink:href="#a"
       gradientUnits="userSpaceOnUse"
       x2="162.17"
       gradientTransform="matrix(1.0203,0,0,1.0203,-8.3821,-4.828)"
       y1="789.58"
       x1="93.799" />
  </defs>
  <g
     transform="matrix(-1.0321094,0.32343175,0.31690456,1.0533677,566.22229,-297.17679)"
     id="g4344"
     style="opacity:0.15">
    <g
       id="g4346"
       style="fill-rule:evenodd">
      <path
         d="M 702.91,973.78 C 765.87,918.34 808.07,850.14 855.22,785.39 908.86,706.97 966.31,710.74 995.51,565.3 1017.6,455.18 985.26,359.11 841.24,306.07 844.3114,234.08 821.661,162.25 781.982,91.23 c 45.998,57.178 68.278,131.83 70.551,209.42 125.5,52.202 174.96,130.59 154.47,264.8 -7.1235,46.653 -15.501,90.061 -47.276,127.33 -43.529,51.062 -64.219,51.176 -104.84,109.99 -41.469,60.042 -89.759,126.03 -151.98,171.01 z"
         id="path4348"
         style="fill:#3a2727;fill-opacity:0.59210995" />
      <path
         d="M 174.72,652.47 C 97.376,674.35 -43.89,811.02 36.13,900.3 c 45.011,50.21 176.33,8.08 221.76,-18.82"
         id="path4350"
         style="fill:#f1eee5;stroke:#404040;stroke-width:2.75045657" />
      <path
         d="M 684.39,40.832 C 668.6,43.751 651.65,51.629 633.56,65.64 561.5,121.48 545.96,187.65 548.8,273.82 l -0.028,0.67943 c -79.426,2.4257 -159.65,27.095 -231.63,88.742 -165.74,141.95 -174.36,406.57 -84.701,508.92 -1.8988,97.95 111.84,178.35997 214.44,152.06997 36.659,-10.798 73.084,2.7026 112.27,5.6289 99.182,-0.3393 189.86,-78.13497 299.55,-249.25997 32.78,-51.13 109.12,-75.88 128.74,-172.91 29.16,-144.1 17.26,-230.58 -146.24,-301.89 7.85,-62.84 -46.25,-285.4 -156.81,-264.97 z"
         id="path4352"
         style="fill:#f1eee5;stroke:#404040;stroke-width:4.58409405" />
      <path
         d="M 737.64,781.74 C 826.1,734.8 923.65,652.57 913.94,573.27 844.2,531.25 722.36,457.43 607.61,475.25 c -74.286,11.537 -96.788,74.273 -102.16,105.86 -4.6763,27.518 3.2376,53.351 -8.457,71.635 -23.031,-29.938 -50.991,-59.158 -91.453,-86.559 7.7577,-19.785 33.181,-27.306 40.138,-43.837 37.709,-89.605 125.6,-115.37 207.07,-120.4 85.475,-21.13 175.66,-15.461 275.23,-3.1277 -94.126,-61.809 -267.7,-147.72 -435.33,-118.72 -60.631,10.489 -120.48,36.011 -175.52,83.145 -165.74,141.95 -171.81,405.84 -81.975,508.16 -1.9639,-92.45 -15.73,-186.94 101.6,-256.83 9.52,57.651 27.638,96.325 48.758,128.38 -25.103,-23.683 -124.34,-16.284 -113.24,81.397 7.3202,64.424 24.527,61.487 36.031,112.99 12.729,56.991 72.49,74.778 105.98,61.096 13.988,14.119 20.282,16.367 33.828,24.449 143.39,30.997 267.15,-112.26 289.53,-241.14 z"
         id="path4354"
         style="fill:#1b0800;fill-opacity:0.54605001" />
    </g>
    <g
       id="g4356"
       style="fill-rule:evenodd">
      <path
         d="m 444,941.74 c -14.52,-161.61 -82.214,-32.413 -56.55,19.323 23.425,52.517 83.318,82.993 135.67,74.674 149,-23.6 215.72,-151.76 214.78,-254.05 -85.54,-82.38 -245.57,-52.86 -197.78,80.68 z"
         id="path4358"
         style="fill:#ffffff" />
      <path
         d="m 444.15,937.87 c -5.1666,29.666 13.941,53.637 28.95,65.429 39.98,31.411 115.64,-26.551 121.5,-49.235 13.183,-51.039 -15.805,-89.117 -55.709,-91.412 -42.756,17.786 -79.59,48.172 -94.738,75.218 z"
         id="path4360"
         style="fill:#320f00" />
      <path
         d="m 576.8,667.72 c -16.512,4.3118 -24.819,-4.2474 -38.405,-39.386 -26.702,-69.064 73.8,-166.03 127.85,-82.287 45.189,70.006 -37.187,108.02 -89.449,121.67 z"
         id="path4362"
         style="fill:#222635" />
      <path
         d="m 392.12,809.54 c -24.623,34.311 -72.391,73.386 -93.779,36.117 -21.68,-37.777 6.3684,-72.938 30.424,-82.791 54.982,-22.52 57.982,19.51 63.355,46.674 z"
         id="path4364"
         style="fill:#222635" />
    </g>
    <ellipse
       rx="23.226"
       ry="26.393"
       transform="matrix(0.70118308,-0.71298127,0.71298127,0.70118308,0,0)"
       cy="830.41998"
       cx="40.160999"
       id="ellipse4366"
       style="fill:#ffffff;fill-opacity:0.67763002" />
    <ellipse
       rx="12.243"
       ry="15.829"
       transform="matrix(0.62208,-0.78296,0.75471,0.65606,0,0)"
       cy="768.38"
       cx="-359.53"
       id="ellipse4368"
       style="fill:#ffffff;fill-opacity:0.71710995" />
    <g
       id="g4370"
       style="fill-rule:evenodd">
      <path
         style="color:#000000;text-indent:0;text-decoration:none;text-decoration-line:none;text-decoration-style:solid;text-decoration-color:#000000;text-transform:none;block-progression:tb;white-space:normal;isolation:auto;mix-blend-mode:normal;solid-color:#000000;fill:#404040;color-rendering:auto;image-rendering:auto;shape-rendering:auto"
         d="m 384.98,955.87 c 28.391,88.056 115.97,88.536 141.05,85.516 119.7,-17.747 218.03,-108.17 211.93,-259.35 -4.0429,135.34 -90.747,233.64 -212.84,253.69 -38.695,5.0477 -108.04,-6.3209 -140.14,-79.857 z"
         id="path4372" />
      <path
         d="M 188.96,778.35 C 169.58,672.47 185.51,508.2 296.05,396.39 374.58,316.95 463.71,289.53 547.16,286.51 700.54,280.96 834.58,347.42 926.52,398.38 831.74,331.13 681.69,271.12 550.62,274.26 545.51,191.38 564,78.95 695.94,36.91 642.3,35.484 528.46,123.98 538.75,272.41 445.5,281.29 350.51,316.52 278.78,397.24 212.03,472.36 179.82,558.5 175.24,642.03 125.17,657.8 28.32,727.04 11.77,825.68 36.403,727.28 138.1,660.82 175.41,652.59 c -0.81406,43.518 4.3485,85.996 13.549,125.77 z"
         id="path4374"
         style="fill:#3a2727;fill-opacity:0.59215997" />
      <path
         d="M 640.7,281.35 C 622.24,252.02 594.8,174.87 642.42,116.37 736.82,0.41 828.59,228.99 804.94,331 773.74,315.85 689.89,287.52 640.7,281.35 Z"
         id="path4376"
         style="fill:url(#c)" />
      <path
         d="M 173.45,700.86 C 108.31,724.32 16.38,827.95 79.8,885.24 c 31.21,28.19 90.73,-5.83 125.72,-49.19 -20.49,-39.64 -29.67,-85.24 -32.07,-135.19 z"
         id="path4378"
         style="fill:url(#b)" />
      <path
         d="m 563.11,542.23 c -21.225,26.542 -35.319,62.283 -12.625,103.84 5.1386,9.4096 10.872,21.996 28.085,17.521 28.469,-7.4016 52.367,-19.962 76.268,-36.846 -67.214,45.853 -129.99,-20.259 -91.728,-84.514 z"
         id="path4380"
         style="fill:#c3c3c3;fill-opacity:0.54509995" />
      <path
         d="m 299.24,839.74 c 4.8554,9.5589 10.915,22.156 28.085,17.521 8.789,-2.3726 15.529,-4.7864 25.6,-12.382 -27.65,-4.5856 -47.567,-28.056 -48.47,-57.121 -6.0417,8.2418 -17.298,28.193 -5.2147,51.982 z"
         id="path4382"
         style="fill:#c3c3c3;fill-opacity:0.54509995" />
    </g>
    <g
       id="g4384"
       style="fill:#838383;fill-opacity:0.59210995">
      <ellipse
         rx="6.559"
         ry="9.4742002"
         transform="matrix(0.86168231,-0.50744813,0.50744813,0.86168231,0,0)"
         cy="1060.6"
         cx="107.43"
         id="ellipse4386" />
      <ellipse
         rx="5.4249001"
         transform="matrix(0.92207,-0.38702,0.32504,0.9457,0,0)"
         ry="8.4431"
         cy="1047.7"
         cx="365.51001"
         id="ellipse4388" />
      <ellipse
         rx="5.6359"
         transform="matrix(0.64379,-0.76521,0.67691,0.73606,0,0)"
         ry="8.0946999"
         cy="1033.4"
         cx="-77.096001"
         id="ellipse4390" />
      <ellipse
         rx="5.7494001"
         ry="8.382"
         transform="matrix(0.79405,-0.60785,0.58335,0.81222,0,0)"
         cy="1051.7"
         cx="94.695999"
         id="ellipse4392" />
      <ellipse
         rx="5.9033999"
         ry="7.9541001"
         transform="matrix(0.27087,-0.96262,0.94882,0.31583,0,0)"
         cy="836.65002"
         cx="-533.73999"
         id="ellipse4394" />
      <ellipse
         rx="5.4187002"
         ry="8.2993002"
         transform="matrix(0.98885,-0.1489,0.13212,0.99123,0,0)"
         cy="986.90997"
         cx="519.95001"
         id="ellipse4396" />
    </g>
  </g>
</svg>
